<?xml version="1.0" encoding="UTF-8"?>
<!DOCTYPE svg PUBLIC "-//W3C//DTD SVG 1.1//EN" "http://www.w3.org/Graphics/SVG/1.1/DTD/svg11.dtd">
<svg xmlns="http://www.w3.org/2000/svg" version="1.1" width="827px" height="957px" style="shape-rendering:geometricPrecision; text-rendering:geometricPrecision; image-rendering:optimizeQuality; fill-rule:evenodd; clip-rule:evenodd" xmlns:xlink="http://www.w3.org/1999/xlink">
<g><path style="opacity:0.024" fill="#2d2d2d" d="M 3.5,-0.5 C 5.16667,-0.5 6.83333,-0.5 8.5,-0.5C 5.83333,2.83333 2.83333,5.83333 -0.5,8.5C -0.5,6.83333 -0.5,5.16667 -0.5,3.5C 1.16667,2.5 2.5,1.16667 3.5,-0.5 Z"/></g>
<g><path style="opacity:0.024" fill="#2d2d2d" d="M 23.5,-0.5 C 25.1667,-0.5 26.8333,-0.5 28.5,-0.5C 19.1667,9.5 9.5,19.1667 -0.5,28.5C -0.5,26.8333 -0.5,25.1667 -0.5,23.5C 7.83333,15.8333 15.8333,7.83333 23.5,-0.5 Z"/></g>
<g><path style="opacity:0.024" fill="#2d2d2d" d="M 43.5,-0.5 C 45.1667,-0.5 46.8333,-0.5 48.5,-0.5C 32.5,16.1667 16.1667,32.5 -0.5,48.5C -0.5,46.8333 -0.5,45.1667 -0.5,43.5C 14.5,29.1667 29.1667,14.5 43.5,-0.5 Z"/></g>
<g><path style="opacity:0.024" fill="#2d2d2d" d="M 63.5,-0.5 C 65.1667,-0.5 66.8333,-0.5 68.5,-0.5C 45.8333,22.8333 22.8333,45.8333 -0.5,68.5C -0.5,66.8333 -0.5,65.1667 -0.5,63.5C 21.1667,42.5 42.5,21.1667 63.5,-0.5 Z"/></g>
<g><path style="opacity:0.024" fill="#2d2d2d" d="M 83.5,-0.5 C 85.1667,-0.5 86.8333,-0.5 88.5,-0.5C 59.1667,29.5 29.5,59.1667 -0.5,88.5C -0.5,86.8333 -0.5,85.1667 -0.5,83.5C 27.8333,55.8333 55.8333,27.8333 83.5,-0.5 Z"/></g>
<g><path style="opacity:0.024" fill="#2d2d2d" d="M 103.5,-0.5 C 105.167,-0.5 106.833,-0.5 108.5,-0.5C 72.5,36.1667 36.1667,72.5 -0.5,108.5C -0.5,106.833 -0.5,105.167 -0.5,103.5C 34.5,69.1667 69.1667,34.5 103.5,-0.5 Z"/></g>
<g><path style="opacity:0.024" fill="#2d2d2d" d="M 123.5,-0.5 C 125.167,-0.5 126.833,-0.5 128.5,-0.5C 85.8333,42.8333 42.8333,85.8333 -0.5,128.5C -0.5,126.833 -0.5,125.167 -0.5,123.5C 41.1667,82.5 82.5,41.1667 123.5,-0.5 Z"/></g>
<g><path style="opacity:0.024" fill="#2d2d2d" d="M 143.5,-0.5 C 145.167,-0.5 146.833,-0.5 148.5,-0.5C 99.1667,49.5 49.5,99.1667 -0.5,148.5C -0.5,146.833 -0.5,145.167 -0.5,143.5C 47.8333,95.8333 95.8333,47.8333 143.5,-0.5 Z"/></g>
<g><path style="opacity:0.024" fill="#2d2d2d" d="M 163.5,-0.5 C 165.167,-0.5 166.833,-0.5 168.5,-0.5C 112.5,56.1667 56.1667,112.5 -0.5,168.5C -0.5,166.833 -0.5,165.167 -0.5,163.5C 54.5,109.167 109.167,54.5 163.5,-0.5 Z"/></g>
<g><path style="opacity:0.024" fill="#2d2d2d" d="M 183.5,-0.5 C 185.167,-0.5 186.833,-0.5 188.5,-0.5C 125.833,62.8333 62.8333,125.833 -0.5,188.5C -0.5,186.833 -0.5,185.167 -0.5,183.5C 61.1667,122.5 122.5,61.1667 183.5,-0.5 Z"/></g>
<g><path style="opacity:0.024" fill="#2d2d2d" d="M 203.5,-0.5 C 205.167,-0.5 206.833,-0.5 208.5,-0.5C 139.167,69.5 69.5,139.167 -0.5,208.5C -0.5,206.833 -0.5,205.167 -0.5,203.5C 67.8333,135.833 135.833,67.8333 203.5,-0.5 Z"/></g>
<g><path style="opacity:0.024" fill="#2d2d2d" d="M 223.5,-0.5 C 225.167,-0.5 226.833,-0.5 228.5,-0.5C 163.5,64.8333 98.5,130.167 33.5,195.5C 31.8333,195.5 30.1667,195.5 28.5,195.5C 93.5,130.167 158.5,64.8333 223.5,-0.5 Z"/></g>
<g><path style="opacity:0.024" fill="#2d2d2d" d="M 243.5,-0.5 C 245.167,-0.5 246.833,-0.5 248.5,-0.5C 183.5,64.8333 118.5,130.167 53.5,195.5C 51.8333,195.5 50.1667,195.5 48.5,195.5C 113.5,130.167 178.5,64.8333 243.5,-0.5 Z"/></g>
<g><path style="opacity:0.024" fill="#2d2d2d" d="M 263.5,-0.5 C 265.167,-0.5 266.833,-0.5 268.5,-0.5C 203.5,64.8333 138.5,130.167 73.5,195.5C 71.8333,195.5 70.1667,195.5 68.5,195.5C 133.5,130.167 198.5,64.8333 263.5,-0.5 Z"/></g>
<g><path style="opacity:0.024" fill="#2d2d2d" d="M 283.5,-0.5 C 285.167,-0.5 286.833,-0.5 288.5,-0.5C 223.5,64.8333 158.5,130.167 93.5,195.5C 91.8333,195.5 90.1667,195.5 88.5,195.5C 153.5,130.167 218.5,64.8333 283.5,-0.5 Z"/></g>
<g><path style="opacity:0.024" fill="#2d2d2d" d="M 303.5,-0.5 C 305.167,-0.5 306.833,-0.5 308.5,-0.5C 243.5,64.8333 178.5,130.167 113.5,195.5C 111.833,195.5 110.167,195.5 108.5,195.5C 173.5,130.167 238.5,64.8333 303.5,-0.5 Z"/></g>
<g><path style="opacity:0.024" fill="#2d2d2d" d="M 323.5,-0.5 C 325.167,-0.5 326.833,-0.5 328.5,-0.5C 320.833,7.5 313.167,15.5 305.5,23.5C 304.833,23.5 304.5,23.8333 304.5,24.5C 300.966,26.7664 297.3,28.7664 293.5,30.5C 303.5,20.1667 313.5,9.83333 323.5,-0.5 Z"/></g>
<g><path style="opacity:0.024" fill="#2d2d2d" d="M 343.5,-0.5 C 345.167,-0.5 346.833,-0.5 348.5,-0.5C 346.167,2.16667 343.833,4.83333 341.5,7.5C 340.833,7.5 340.5,7.83333 340.5,8.5C 338.254,9.45517 335.921,10.1218 333.5,10.5C 336.833,6.83333 340.167,3.16667 343.5,-0.5 Z"/></g>
<g><path style="opacity:0.992" fill="#364749" d="M 363.5,-0.5 C 365.167,-0.5 366.833,-0.5 368.5,-0.5C 369.5,0.833333 370.5,0.833333 371.5,-0.5C 399.5,-0.5 427.5,-0.5 455.5,-0.5C 457.343,0.282883 459.343,0.94955 461.5,1.5C 462.522,1.14451 463.189,0.477842 463.5,-0.5C 465.167,-0.5 466.833,-0.5 468.5,-0.5C 468.047,0.458367 467.381,1.2917 466.5,2C 470.417,3.47886 474.417,4.64553 478.5,5.5C 479.568,6.43448 480.901,6.76781 482.5,6.5C 485.95,8.20784 489.617,9.54118 493.5,10.5C 494.209,11.404 495.209,11.7373 496.5,11.5C 499.836,13.7306 503.503,15.3973 507.5,16.5C 508.29,17.4013 509.29,18.0679 510.5,18.5C 513.833,20.1667 517.167,21.8333 520.5,23.5C 521.391,24.1098 522.391,24.4431 523.5,24.5C 526.494,26.9998 529.827,28.9998 533.5,30.5C 533.973,31.9063 534.973,32.573 536.5,32.5C 539.291,34.7349 542.291,36.7349 545.5,38.5C 546.167,39.8333 547.167,40.8333 548.5,41.5C 551.009,42.9213 553.343,44.5879 555.5,46.5C 556.795,47.4884 558.128,48.4884 559.5,49.5C 562.141,51.8044 564.808,54.1377 567.5,56.5C 568.167,57.8333 569.167,58.8333 570.5,59.5C 572.833,61.5 575.167,63.5 577.5,65.5C 578.167,66.8333 579.167,67.8333 580.5,68.5C 582.5,70.8333 584.5,73.1667 586.5,75.5C 587.167,76.8333 588.167,77.8333 589.5,78.5C 591.862,81.192 594.196,83.8587 596.5,86.5C 597.512,87.8717 598.512,89.205 599.5,90.5C 601.5,92.8333 603.5,95.1667 605.5,97.5C 605.427,99.0269 606.094,100.027 607.5,100.5C 609.5,103.5 611.5,106.5 613.5,109.5C 614.167,110.5 614.833,111.5 615.5,112.5C 617.533,115.523 619.533,118.523 621.5,121.5C 621.427,123.027 622.094,124.027 623.5,124.5C 625.153,127.807 626.82,131.14 628.5,134.5C 628.932,135.71 629.599,136.71 630.5,137.5C 632.167,140.833 633.833,144.167 635.5,147.5C 635.989,148.995 636.655,150.329 637.5,151.5C 638.833,154.833 640.167,158.167 641.5,161.5C 641.932,162.71 642.599,163.71 643.5,164.5C 644.492,167.823 645.492,171.156 646.5,174.5C 646.893,176.284 647.559,177.95 648.5,179.5C 649.833,183.167 651.167,186.833 652.5,190.5C 652.433,191.959 652.766,193.292 653.5,194.5C 654.812,198.416 655.812,202.416 656.5,206.5C 657.024,208.306 657.691,209.972 658.5,211.5C 659.008,215.197 659.674,218.864 660.5,222.5C 660.833,223.833 661.167,225.167 661.5,226.5C 662.275,230.814 662.941,235.147 663.5,239.5C 663.433,240.959 663.766,242.292 664.5,243.5C 664.998,248.152 665.331,252.819 665.5,257.5C 666.234,258.708 666.567,260.041 666.5,261.5C 666.437,266.203 666.771,270.87 667.5,275.5C 667.5,277.167 667.5,278.833 667.5,280.5C 667.5,285.5 667.5,290.5 667.5,295.5C 666.85,297.435 666.517,299.435 666.5,301.5C 663.477,313.189 656.144,320.523 644.5,323.5C 642.833,323.5 641.167,323.5 639.5,323.5C 635.168,323.721 631.168,322.721 627.5,320.5C 626.71,319.599 625.71,318.932 624.5,318.5C 621.81,316.807 619.81,314.473 618.5,311.5C 617.488,310.128 616.488,308.795 615.5,307.5C 614.344,303.877 613.344,300.211 612.5,296.5C 612.5,294.833 612.5,293.167 612.5,291.5C 612.5,286.833 612.5,282.167 612.5,277.5C 611.699,275.958 611.366,274.292 611.5,272.5C 611.331,267.819 610.998,263.152 610.5,258.5C 610.567,257.041 610.234,255.708 609.5,254.5C 609.156,250.106 608.49,245.772 607.5,241.5C 607.768,239.901 607.434,238.568 606.5,237.5C 605.833,233.5 605.167,229.5 604.5,225.5C 604.011,224.005 603.345,222.671 602.5,221.5C 601.91,217.397 600.91,213.397 599.5,209.5C 598.976,207.694 598.309,206.028 597.5,204.5C 596.733,200.851 595.4,197.518 593.5,194.5C 593.737,193.209 593.404,192.209 592.5,191.5C 591.397,187.503 589.731,183.836 587.5,180.5C 587.443,179.391 587.11,178.391 586.5,177.5C 584.833,174.167 583.167,170.833 581.5,167.5C 581.068,166.29 580.401,165.29 579.5,164.5C 577.863,160.882 575.863,157.549 573.5,154.5C 573.068,153.29 572.401,152.29 571.5,151.5C 569.833,148.833 568.167,146.167 566.5,143.5C 565.833,142.167 564.833,141.167 563.5,140.5C 561.542,137.208 559.209,134.208 556.5,131.5C 556.573,129.973 555.906,128.973 554.5,128.5C 552.5,126.167 550.5,123.833 548.5,121.5C 547.833,120.167 546.833,119.167 545.5,118.5C 543.5,115.833 541.167,113.5 538.5,111.5C 537.5,109.833 536.167,108.5 534.5,107.5C 532.116,105.115 529.45,103.115 526.5,101.5C 525.833,100.167 524.833,99.1667 523.5,98.5C 520.991,97.0787 518.657,95.4121 516.5,93.5C 515.205,92.5116 513.872,91.5116 512.5,90.5C 509.661,88.5797 506.661,86.9131 503.5,85.5C 502.205,84.5116 500.872,83.5116 499.5,82.5C 496.622,80.8946 493.622,79.5612 490.5,78.5C 489.486,77.3263 488.153,76.6596 486.5,76.5C 483.449,74.6477 480.116,73.3143 476.5,72.5C 475.486,71.3263 474.153,70.6596 472.5,70.5C 468.833,69.1667 465.167,67.8333 461.5,66.5C 460.041,66.5674 458.708,66.2341 457.5,65.5C 453.557,64.5145 449.557,63.8478 445.5,63.5C 444.081,62.5489 442.415,62.2155 440.5,62.5C 436.261,61.4654 431.928,60.7988 427.5,60.5C 425.833,60.5 424.167,60.5 422.5,60.5C 417.473,59.4911 412.473,59.4911 407.5,60.5C 405.833,60.5 404.167,60.5 402.5,60.5C 396.752,60.6073 391.085,61.274 385.5,62.5C 383.435,62.5172 381.435,62.8505 379.5,63.5C 372.249,64.7284 365.249,66.7284 358.5,69.5C 356.035,69.767 353.701,70.4336 351.5,71.5C 350.833,71.5 350.5,71.8333 350.5,72.5C 340.168,75.8332 330.501,80.4999 321.5,86.5C 316.825,89.5031 312.159,92.5031 307.5,95.5C 306.833,95.5 306.5,95.8333 306.5,96.5C 305.833,96.5 305.5,96.8333 305.5,97.5C 304.833,97.5 304.5,97.8333 304.5,98.5C 289.5,108.833 276.833,121.5 266.5,136.5C 265.833,136.5 265.5,136.833 265.5,137.5C 264.833,137.5 264.5,137.833 264.5,138.5C 263.833,138.5 263.5,138.833 263.5,139.5C 259.425,143.976 256.092,148.976 253.5,154.5C 246.802,164.559 241.135,175.226 236.5,186.5C 235.833,186.5 235.5,186.833 235.5,187.5C 234.5,190.167 233.5,192.833 232.5,195.5C 229.369,202.562 227.035,209.895 225.5,217.5C 224.833,217.5 224.5,217.833 224.5,218.5C 223.85,220.435 223.517,222.435 223.5,224.5C 221.328,231.019 219.662,237.686 218.5,244.5C 218.483,246.565 218.15,248.565 217.5,250.5C 216.915,256.178 216.249,261.845 215.5,267.5C 215.5,269.167 215.5,270.833 215.5,272.5C 214.658,277.787 214.324,283.12 214.5,288.5C 214.5,290.167 214.5,291.833 214.5,293.5C 213.921,306.505 207.921,316.005 196.5,322C 192.582,323.156 188.582,323.656 184.5,323.5C 183.041,323.567 181.708,323.234 180.5,322.5C 177.122,321.977 174.122,320.644 171.5,318.5C 170.167,317.167 168.833,315.833 167.5,314.5C 165.347,312.206 163.68,309.54 162.5,306.5C 162.011,305.005 161.345,303.671 160.5,302.5C 159.705,298.215 159.372,293.881 159.5,289.5C 159.5,287.833 159.5,286.167 159.5,284.5C 159.5,279.5 159.5,274.5 159.5,269.5C 160.167,269.5 160.5,269.167 160.5,268.5C 160.5,266.833 160.5,265.167 160.5,263.5C 160.876,257.783 161.543,252.116 162.5,246.5C 162.517,244.435 162.85,242.435 163.5,240.5C 164.167,234.833 164.833,229.167 165.5,223.5C 166.167,223.5 166.5,223.167 166.5,222.5C 166.833,220.5 167.167,218.5 167.5,216.5C 169.167,209.833 170.834,203.166 172.5,196.5C 173.612,194.401 174.279,192.067 174.5,189.5C 177.563,181.977 180.23,174.31 182.5,166.5C 183.167,166.5 183.5,166.167 183.5,165.5C 185.06,163.046 186.06,160.38 186.5,157.5C 191.498,147.505 196.498,137.505 201.5,127.5C 202.167,127.5 202.5,127.167 202.5,126.5C 205.335,122.836 207.668,118.836 209.5,114.5C 231.833,80.8333 259.833,52.8333 293.5,30.5C 297.3,28.7664 300.966,26.7664 304.5,24.5C 305.167,24.5 305.5,24.1667 305.5,23.5C 314.807,19.1807 324.14,14.8474 333.5,10.5C 335.921,10.1218 338.254,9.45517 340.5,8.5C 341.167,8.5 341.5,8.16667 341.5,7.5C 348.148,5.67098 354.814,3.83764 361.5,2C 362.381,1.2917 363.047,0.458367 363.5,-0.5 Z M 422.5,60.5 C 377.833,105.5 333.167,150.5 288.5,195.5C 283.5,195.5 278.5,195.5 273.5,195.5C 318.167,150.5 362.833,105.5 407.5,60.5C 412.473,59.4911 417.473,59.4911 422.5,60.5 Z M 402.5,60.5 C 357.833,105.5 313.167,150.5 268.5,195.5C 265.482,195.335 262.482,195.502 259.5,196C 257.067,201.137 254.734,206.304 252.5,211.5C 241.167,222.5 229.833,233.5 218.5,244.5C 219.662,237.686 221.328,231.019 223.5,224.5C 277.833,170.833 331.833,116.833 385.5,62.5C 391.085,61.274 396.752,60.6073 402.5,60.5 Z M 427.5,60.5 C 431.928,60.7988 436.261,61.4654 440.5,62.5C 396.5,106.833 352.5,151.167 308.5,195.5C 303.5,195.5 298.5,195.5 293.5,195.5C 338.167,150.5 382.833,105.5 427.5,60.5 Z M 379.5,63.5 C 328.5,115.167 277.167,166.5 225.5,217.5C 227.035,209.895 229.369,202.562 232.5,195.5C 274.833,153.833 316.833,111.833 358.5,69.5C 365.249,66.7284 372.249,64.7284 379.5,63.5 Z M 445.5,63.5 C 449.557,63.8478 453.557,64.5145 457.5,65.5C 414.5,108.833 371.5,152.167 328.5,195.5C 323.5,195.5 318.5,195.5 313.5,195.5C 357.167,151.167 401.167,107.167 445.5,63.5 Z M 461.5,66.5 C 465.167,67.8333 468.833,69.1667 472.5,70.5C 431.167,112.167 389.833,153.833 348.5,195.5C 343.5,195.5 338.5,195.5 333.5,195.5C 376.167,152.5 418.833,109.5 461.5,66.5 Z M 350.5,72.5 C 312.833,110.833 274.833,148.833 236.5,186.5C 241.135,175.226 246.802,164.559 253.5,154.5C 276.5,132.167 299.167,109.5 321.5,86.5C 330.501,80.4999 340.168,75.8332 350.5,72.5 Z M 476.5,72.5 C 480.116,73.3143 483.449,74.6477 486.5,76.5C 447.167,116.167 407.833,155.833 368.5,195.5C 363.5,195.5 358.5,195.5 353.5,195.5C 394.167,154.167 435.167,113.167 476.5,72.5 Z M 490.5,78.5 C 493.622,79.5612 496.622,80.8946 499.5,82.5C 499.631,83.2389 499.464,83.9056 499,84.5C 461.965,121.368 425.132,158.368 388.5,195.5C 383.5,195.5 378.5,195.5 373.5,195.5C 412.167,156.167 451.167,117.167 490.5,78.5 Z M 503.5,85.5 C 506.661,86.9131 509.661,88.5797 512.5,90.5C 477.833,125.5 443.167,160.5 408.5,195.5C 403.5,195.5 398.5,195.5 393.5,195.5C 429.833,158.5 466.5,121.833 503.5,85.5 Z M 516.5,93.5 C 518.657,95.4121 520.991,97.0787 523.5,98.5C 523.631,99.2389 523.464,99.9056 523,100.5C 491.299,132.035 459.799,163.701 428.5,195.5C 423.5,195.5 418.5,195.5 413.5,195.5C 447.216,160.783 481.549,126.783 516.5,93.5 Z M 304.5,98.5 C 292.167,111.5 279.5,124.167 266.5,136.5C 276.833,121.5 289.5,108.833 304.5,98.5 Z M 526.5,101.5 C 529.45,103.115 532.116,105.115 534.5,107.5C 534.631,108.239 534.464,108.906 534,109.5C 505.298,138.035 476.798,166.701 448.5,195.5C 443.5,195.5 438.5,195.5 433.5,195.5C 464.5,164.167 495.5,132.833 526.5,101.5 Z M 538.5,111.5 C 541.167,113.5 543.5,115.833 545.5,118.5C 519.5,143.833 493.833,169.5 468.5,195.5C 463.5,195.5 458.5,195.5 453.5,195.5C 481.216,166.783 509.55,138.783 538.5,111.5 Z M 548.5,121.5 C 550.5,123.833 552.5,126.167 554.5,128.5C 532.5,150.833 510.5,173.167 488.5,195.5C 483.5,195.5 478.5,195.5 473.5,195.5C 497.883,170.116 522.883,145.449 548.5,121.5 Z M 556.5,131.5 C 559.209,134.208 561.542,137.208 563.5,140.5C 544.833,158.5 526.5,176.833 508.5,195.5C 503.5,195.5 498.5,195.5 493.5,195.5C 514.5,174.167 535.5,152.833 556.5,131.5 Z M 566.5,143.5 C 568.167,146.167 569.833,148.833 571.5,151.5C 557.167,166.167 542.833,180.833 528.5,195.5C 523.5,195.5 518.5,195.5 513.5,195.5C 530.551,177.448 548.217,160.115 566.5,143.5 Z M 573.5,154.5 C 575.863,157.549 577.863,160.882 579.5,164.5C 568.833,174.5 558.5,184.833 548.5,195.5C 543.5,195.5 538.5,195.5 533.5,195.5C 546.833,181.833 560.167,168.167 573.5,154.5 Z M 581.5,167.5 C 583.167,170.833 584.833,174.167 586.5,177.5C 580.167,183.5 573.833,189.5 567.5,195.5C 562.833,195.5 558.167,195.5 553.5,195.5C 562.5,185.833 571.833,176.5 581.5,167.5 Z M 587.5,180.5 C 589.731,183.836 591.397,187.503 592.5,191.5C 586.112,197.892 579.445,203.892 572.5,209.5C 571.5,206.167 570.5,202.833 569.5,199.5C 575.5,193.167 581.5,186.833 587.5,180.5 Z M 593.5,194.5 C 595.4,197.518 596.733,200.851 597.5,204.5C 591.557,212.111 584.891,219.111 577.5,225.5C 576.5,221.5 575.5,217.5 574.5,213.5C 581.167,207.5 587.5,201.167 593.5,194.5 Z M 599.5,209.5 C 600.91,213.397 601.91,217.397 602.5,221.5C 595.5,228.167 588.5,234.833 581.5,241.5C 580.808,237.4 579.808,233.4 578.5,229.5C 585.5,222.833 592.5,216.167 599.5,209.5 Z M 250.5,218.5 C 248.652,225.561 246.652,232.561 244.5,239.5C 234.833,248.833 225.167,258.167 215.5,267.5C 216.249,261.845 216.915,256.178 217.5,250.5C 228.5,239.833 239.5,229.167 250.5,218.5 Z M 604.5,225.5 C 605.167,229.5 605.833,233.5 606.5,237.5C 596.167,247.5 585.833,257.5 575.5,267.5C 577.197,262.442 579.697,257.775 583,253.5C 583.43,250.808 583.263,248.141 582.5,245.5C 589.554,238.442 596.888,231.775 604.5,225.5 Z M 607.5,241.5 C 608.49,245.772 609.156,250.106 609.5,254.5C 595.833,267.833 582.167,281.167 568.5,294.5C 568.853,288.38 569.853,282.38 571.5,276.5C 583.5,264.833 595.5,253.167 607.5,241.5 Z M 243.5,245.5 C 243.38,247.199 243.046,248.865 242.5,250.5C 243.823,252.827 245.157,255.16 246.5,257.5C 235.833,267.833 225.167,278.167 214.5,288.5C 214.324,283.12 214.658,277.787 215.5,272.5C 224.833,263.5 234.167,254.5 243.5,245.5 Z M 610.5,258.5 C 610.998,263.152 611.331,267.819 611.5,272.5C 597.5,285.833 583.833,299.5 570.5,313.5C 568.896,309.1 568.229,304.434 568.5,299.5C 582.5,285.833 596.5,272.167 610.5,258.5 Z"/></g>
<g><path style="opacity:0.024" fill="#2d2d2d" d="M 483.5,-0.5 C 485.167,-0.5 486.833,-0.5 488.5,-0.5C 486.5,1.83333 484.5,4.16667 482.5,6.5C 480.901,6.76781 479.568,6.43448 478.5,5.5C 480.167,3.5 481.833,1.5 483.5,-0.5 Z"/></g>
<g><path style="opacity:0.024" fill="#2d2d2d" d="M 503.5,-0.5 C 505.167,-0.5 506.833,-0.5 508.5,-0.5C 504.833,3.83333 500.833,7.83333 496.5,11.5C 495.209,11.7373 494.209,11.404 493.5,10.5C 496.833,6.83333 500.167,3.16667 503.5,-0.5 Z"/></g>
<g><path style="opacity:0.024" fill="#2d2d2d" d="M 523.5,-0.5 C 525.167,-0.5 526.833,-0.5 528.5,-0.5C 522.5,5.83333 516.5,12.1667 510.5,18.5C 509.29,18.0679 508.29,17.4013 507.5,16.5C 512.833,10.8333 518.167,5.16667 523.5,-0.5 Z"/></g>
<g><path style="opacity:0.024" fill="#2d2d2d" d="M 543.5,-0.5 C 545.167,-0.5 546.833,-0.5 548.5,-0.5C 540.5,8.16667 532.167,16.5 523.5,24.5C 522.391,24.4431 521.391,24.1098 520.5,23.5C 528.167,15.5 535.833,7.5 543.5,-0.5 Z"/></g>
<g><path style="opacity:0.024" fill="#2d2d2d" d="M 563.5,-0.5 C 565.167,-0.5 566.833,-0.5 568.5,-0.5C 557.833,10.5 547.167,21.5 536.5,32.5C 534.973,32.573 533.973,31.9063 533.5,30.5C 543.5,20.1667 553.5,9.83333 563.5,-0.5 Z"/></g>
<g><path style="opacity:0.024" fill="#2d2d2d" d="M 583.5,-0.5 C 585.167,-0.5 586.833,-0.5 588.5,-0.5C 575.535,12.9652 562.369,26.2985 549,39.5C 548.536,40.0944 548.369,40.7611 548.5,41.5C 547.167,40.8333 546.167,39.8333 545.5,38.5C 558.167,25.5 570.833,12.5 583.5,-0.5 Z"/></g>
<g><path style="opacity:0.024" fill="#2d2d2d" d="M 603.5,-0.5 C 605.167,-0.5 606.833,-0.5 608.5,-0.5C 592.167,16.1667 575.833,32.8333 559.5,49.5C 558.128,48.4884 556.795,47.4884 555.5,46.5C 572.116,31.552 588.116,15.8854 603.5,-0.5 Z"/></g>
<g><path style="opacity:0.024" fill="#2d2d2d" d="M 623.5,-0.5 C 625.167,-0.5 626.833,-0.5 628.5,-0.5C 609.535,18.9653 590.368,38.2986 571,57.5C 570.536,58.0944 570.369,58.7611 570.5,59.5C 569.167,58.8333 568.167,57.8333 567.5,56.5C 586.167,37.5 604.833,18.5 623.5,-0.5 Z"/></g>
<g><path style="opacity:0.024" fill="#2d2d2d" d="M 643.5,-0.5 C 645.167,-0.5 646.833,-0.5 648.5,-0.5C 625.833,22.5 603.167,45.5 580.5,68.5C 579.167,67.8333 578.167,66.8333 577.5,65.5C 599.833,43.8333 621.833,21.8333 643.5,-0.5 Z"/></g>
<g><path style="opacity:0.024" fill="#2d2d2d" d="M 663.5,-0.5 C 665.167,-0.5 666.833,-0.5 668.5,-0.5C 642.5,26.1667 616.167,52.5 589.5,78.5C 588.167,77.8333 587.167,76.8333 586.5,75.5C 612.783,50.8839 638.45,25.5505 663.5,-0.5 Z"/></g>
<g><path style="opacity:0.024" fill="#2d2d2d" d="M 683.5,-0.5 C 685.167,-0.5 686.833,-0.5 688.5,-0.5C 659.202,29.2987 629.702,58.9653 600,88.5C 599.536,89.0944 599.369,89.7611 599.5,90.5C 598.512,89.205 597.512,87.8717 596.5,86.5C 625.833,57.8333 654.833,28.8333 683.5,-0.5 Z"/></g>
<g><path style="opacity:0.024" fill="#2d2d2d" d="M 703.5,-0.5 C 705.167,-0.5 706.833,-0.5 708.5,-0.5C 675.167,33.5 641.5,67.1667 607.5,100.5C 606.094,100.027 605.427,99.0269 605.5,97.5C 638.5,65.1667 671.167,32.5 703.5,-0.5 Z"/></g>
<g><path style="opacity:0.024" fill="#2d2d2d" d="M 723.5,-0.5 C 725.167,-0.5 726.833,-0.5 728.5,-0.5C 691.167,37.5 653.5,75.1667 615.5,112.5C 614.833,111.5 614.167,110.5 613.5,109.5C 650.5,73.1667 687.167,36.5 723.5,-0.5 Z"/></g>
<g><path style="opacity:0.024" fill="#2d2d2d" d="M 743.5,-0.5 C 745.167,-0.5 746.833,-0.5 748.5,-0.5C 707.167,41.5 665.5,83.1667 623.5,124.5C 622.094,124.027 621.427,123.027 621.5,121.5C 662.5,81.1667 703.167,40.5 743.5,-0.5 Z"/></g>
<g><path style="opacity:0.024" fill="#2d2d2d" d="M 763.5,-0.5 C 765.167,-0.5 766.833,-0.5 768.5,-0.5C 722.833,45.8333 676.833,91.8333 630.5,137.5C 629.599,136.71 628.932,135.71 628.5,134.5C 673.833,89.8333 718.833,44.8333 763.5,-0.5 Z"/></g>
<g><path style="opacity:0.024" fill="#2d2d2d" d="M 783.5,-0.5 C 785.167,-0.5 786.833,-0.5 788.5,-0.5C 738.167,50.1667 687.833,100.833 637.5,151.5C 636.655,150.329 635.989,148.995 635.5,147.5C 685.167,98.5 734.5,49.1667 783.5,-0.5 Z"/></g>
<g><path style="opacity:0.024" fill="#2d2d2d" d="M 803.5,-0.5 C 805.167,-0.5 806.833,-0.5 808.5,-0.5C 753.833,54.8333 698.833,109.833 643.5,164.5C 642.599,163.71 641.932,162.71 641.5,161.5C 695.833,107.833 749.833,53.8333 803.5,-0.5 Z"/></g>
<g><path style="opacity:0.024" fill="#2d2d2d" d="M 823.5,-0.5 C 824.5,-0.5 825.5,-0.5 826.5,-0.5C 826.5,0.5 826.5,1.5 826.5,2.5C 767.167,61.5 707.833,120.5 648.5,179.5C 647.559,177.95 646.893,176.284 646.5,174.5C 647.117,174.611 647.617,174.944 648,175.5C 706.701,116.965 765.201,58.2987 823.5,-0.5 Z"/></g>
<g><path style="opacity:0.024" fill="#2d2d2d" d="M 826.5,17.5 C 826.5,19.1667 826.5,20.8333 826.5,22.5C 768.833,79.8333 711.167,137.167 653.5,194.5C 652.766,193.292 652.433,191.959 652.5,190.5C 710.5,132.833 768.5,75.1667 826.5,17.5 Z"/></g>
<g><path style="opacity:0.024" fill="#2d2d2d" d="M 826.5,37.5 C 826.5,39.1667 826.5,40.8333 826.5,42.5C 769.784,98.2156 713.784,154.549 658.5,211.5C 657.691,209.972 657.024,208.306 656.5,206.5C 713.167,150.167 769.833,93.8333 826.5,37.5 Z"/></g>
<g><path style="opacity:0.024" fill="#2d2d2d" d="M 826.5,57.5 C 826.5,59.1667 826.5,60.8333 826.5,62.5C 781.833,106.5 737.5,150.833 693.5,195.5C 691.833,195.5 690.167,195.5 688.5,195.5C 734.167,149.167 780.167,103.167 826.5,57.5 Z"/></g>
<g><path style="opacity:0.024" fill="#2d2d2d" d="M 402.5,60.5 C 404.167,60.5 405.833,60.5 407.5,60.5C 362.833,105.5 318.167,150.5 273.5,195.5C 271.833,195.5 270.167,195.5 268.5,195.5C 313.167,150.5 357.833,105.5 402.5,60.5 Z"/></g>
<g><path style="opacity:0.024" fill="#2d2d2d" d="M 422.5,60.5 C 424.167,60.5 425.833,60.5 427.5,60.5C 382.833,105.5 338.167,150.5 293.5,195.5C 291.833,195.5 290.167,195.5 288.5,195.5C 333.167,150.5 377.833,105.5 422.5,60.5 Z"/></g>
<g><path style="opacity:0.024" fill="#2d2d2d" d="M 385.5,62.5 C 331.833,116.833 277.833,170.833 223.5,224.5C 223.517,222.435 223.85,220.435 224.5,218.5C 225.167,218.5 225.5,218.167 225.5,217.5C 277.167,166.5 328.5,115.167 379.5,63.5C 381.435,62.8505 383.435,62.5172 385.5,62.5 Z"/></g>
<g><path style="opacity:0.024" fill="#2d2d2d" d="M 440.5,62.5 C 442.415,62.2155 444.081,62.5489 445.5,63.5C 401.167,107.167 357.167,151.167 313.5,195.5C 311.833,195.5 310.167,195.5 308.5,195.5C 352.5,151.167 396.5,106.833 440.5,62.5 Z"/></g>
<g><path style="opacity:0.024" fill="#2d2d2d" d="M 457.5,65.5 C 458.708,66.2341 460.041,66.5674 461.5,66.5C 418.833,109.5 376.167,152.5 333.5,195.5C 331.833,195.5 330.167,195.5 328.5,195.5C 371.5,152.167 414.5,108.833 457.5,65.5 Z"/></g>
<g><path style="opacity:0.024" fill="#2d2d2d" d="M 358.5,69.5 C 316.833,111.833 274.833,153.833 232.5,195.5C 233.5,192.833 234.5,190.167 235.5,187.5C 236.167,187.5 236.5,187.167 236.5,186.5C 274.833,148.833 312.833,110.833 350.5,72.5C 351.167,72.5 351.5,72.1667 351.5,71.5C 353.701,70.4336 356.035,69.767 358.5,69.5 Z"/></g>
<g><path style="opacity:0.024" fill="#2d2d2d" d="M 472.5,70.5 C 474.153,70.6596 475.486,71.3263 476.5,72.5C 435.167,113.167 394.167,154.167 353.5,195.5C 351.833,195.5 350.167,195.5 348.5,195.5C 389.833,153.833 431.167,112.167 472.5,70.5 Z"/></g>
<g><path style="opacity:0.024" fill="#2d2d2d" d="M 486.5,76.5 C 488.153,76.6596 489.486,77.3263 490.5,78.5C 451.167,117.167 412.167,156.167 373.5,195.5C 371.833,195.5 370.167,195.5 368.5,195.5C 407.833,155.833 447.167,116.167 486.5,76.5 Z"/></g>
<g><path style="opacity:0.024" fill="#2d2d2d" d="M 826.5,77.5 C 826.5,79.1667 826.5,80.8333 826.5,82.5C 788.5,119.833 750.833,157.5 713.5,195.5C 711.833,195.5 710.167,195.5 708.5,195.5C 747.5,155.833 786.833,116.5 826.5,77.5 Z"/></g>
<g><path style="opacity:0.024" fill="#2d2d2d" d="M 499.5,82.5 C 500.872,83.5116 502.205,84.5116 503.5,85.5C 466.5,121.833 429.833,158.5 393.5,195.5C 391.833,195.5 390.167,195.5 388.5,195.5C 425.132,158.368 461.965,121.368 499,84.5C 499.464,83.9056 499.631,83.2389 499.5,82.5 Z"/></g>
<g><path style="opacity:0.024" fill="#2d2d2d" d="M 321.5,86.5 C 299.167,109.5 276.5,132.167 253.5,154.5C 256.092,148.976 259.425,143.976 263.5,139.5C 264.167,139.5 264.5,139.167 264.5,138.5C 265.167,138.5 265.5,138.167 265.5,137.5C 266.167,137.5 266.5,137.167 266.5,136.5C 279.5,124.167 292.167,111.5 304.5,98.5C 305.167,98.5 305.5,98.1667 305.5,97.5C 306.167,97.5 306.5,97.1667 306.5,96.5C 307.167,96.5 307.5,96.1667 307.5,95.5C 312.159,92.5031 316.825,89.5031 321.5,86.5 Z"/></g>
<g><path style="opacity:0.024" fill="#2d2d2d" d="M 512.5,90.5 C 513.872,91.5116 515.205,92.5116 516.5,93.5C 481.549,126.783 447.216,160.783 413.5,195.5C 411.833,195.5 410.167,195.5 408.5,195.5C 443.167,160.5 477.833,125.5 512.5,90.5 Z"/></g>
<g><path style="opacity:0.024" fill="#2d2d2d" d="M 826.5,97.5 C 826.5,99.1667 826.5,100.833 826.5,102.5C 795.167,133.167 764.167,164.167 733.5,195.5C 731.833,195.5 730.167,195.5 728.5,195.5C 760.833,162.5 793.5,129.833 826.5,97.5 Z"/></g>
<g><path style="opacity:0.024" fill="#2d2d2d" d="M 523.5,98.5 C 524.833,99.1667 525.833,100.167 526.5,101.5C 495.5,132.833 464.5,164.167 433.5,195.5C 431.833,195.5 430.167,195.5 428.5,195.5C 459.799,163.701 491.299,132.035 523,100.5C 523.464,99.9056 523.631,99.2389 523.5,98.5 Z"/></g>
<g><path style="opacity:0.024" fill="#2d2d2d" d="M 534.5,107.5 C 536.167,108.5 537.5,109.833 538.5,111.5C 509.55,138.783 481.216,166.783 453.5,195.5C 451.833,195.5 450.167,195.5 448.5,195.5C 476.798,166.701 505.298,138.035 534,109.5C 534.464,108.906 534.631,108.239 534.5,107.5 Z"/></g>
<g><path style="opacity:0.024" fill="#2d2d2d" d="M 209.5,114.5 C 207.668,118.836 205.335,122.836 202.5,126.5C 201.833,126.5 201.5,126.833 201.5,127.5C 178.5,149.833 155.833,172.5 133.5,195.5C 131.833,195.5 130.167,195.5 128.5,195.5C 155.167,168.167 182.167,141.167 209.5,114.5 Z"/></g>
<g><path style="opacity:0.024" fill="#2d2d2d" d="M 545.5,118.5 C 546.833,119.167 547.833,120.167 548.5,121.5C 522.883,145.449 497.883,170.116 473.5,195.5C 471.833,195.5 470.167,195.5 468.5,195.5C 493.833,169.5 519.5,143.833 545.5,118.5 Z"/></g>
<g><path style="opacity:0.024" fill="#2d2d2d" d="M 826.5,117.5 C 826.5,119.167 826.5,120.833 826.5,122.5C 801.833,146.5 777.5,170.833 753.5,195.5C 751.833,195.5 750.167,195.5 748.5,195.5C 774.167,169.167 800.167,143.167 826.5,117.5 Z"/></g>
<g><path style="opacity:0.024" fill="#2d2d2d" d="M 554.5,128.5 C 555.906,128.973 556.573,129.973 556.5,131.5C 535.5,152.833 514.5,174.167 493.5,195.5C 491.833,195.5 490.167,195.5 488.5,195.5C 510.5,173.167 532.5,150.833 554.5,128.5 Z"/></g>
<g><path style="opacity:0.024" fill="#2d2d2d" d="M 826.5,137.5 C 826.5,139.167 826.5,140.833 826.5,142.5C 808.5,159.833 790.833,177.5 773.5,195.5C 771.833,195.5 770.167,195.5 768.5,195.5C 787.5,175.833 806.833,156.5 826.5,137.5 Z"/></g>
<g><path style="opacity:0.024" fill="#2d2d2d" d="M 563.5,140.5 C 564.833,141.167 565.833,142.167 566.5,143.5C 548.217,160.115 530.551,177.448 513.5,195.5C 511.833,195.5 510.167,195.5 508.5,195.5C 526.5,176.833 544.833,158.5 563.5,140.5 Z"/></g>
<g><path style="opacity:0.024" fill="#2d2d2d" d="M 571.5,151.5 C 572.401,152.29 573.068,153.29 573.5,154.5C 560.167,168.167 546.833,181.833 533.5,195.5C 531.833,195.5 530.167,195.5 528.5,195.5C 542.833,180.833 557.167,166.167 571.5,151.5 Z"/></g>
<g><path style="opacity:0.024" fill="#2d2d2d" d="M 826.5,157.5 C 826.5,159.167 826.5,160.833 826.5,162.5C 815.167,173.167 804.167,184.167 793.5,195.5C 791.833,195.5 790.167,195.5 788.5,195.5C 800.833,182.5 813.5,169.833 826.5,157.5 Z"/></g>
<g><path style="opacity:0.024" fill="#2d2d2d" d="M 186.5,157.5 C 186.06,160.38 185.06,163.046 183.5,165.5C 182.833,165.5 182.5,165.833 182.5,166.5C 170.167,178.5 157.833,190.5 145.5,202.5C 145.517,200.435 145.85,198.435 146.5,196.5C 159.833,183.5 173.167,170.5 186.5,157.5 Z"/></g>
<g><path style="opacity:0.024" fill="#2d2d2d" d="M 579.5,164.5 C 580.401,165.29 581.068,166.29 581.5,167.5C 571.833,176.5 562.5,185.833 553.5,195.5C 551.833,195.5 550.167,195.5 548.5,195.5C 558.5,184.833 568.833,174.5 579.5,164.5 Z"/></g>
<g><path style="opacity:0.024" fill="#2d2d2d" d="M 586.5,177.5 C 587.11,178.391 587.443,179.391 587.5,180.5C 581.5,186.833 575.5,193.167 569.5,199.5C 568.326,198.486 567.66,197.153 567.5,195.5C 573.833,189.5 580.167,183.5 586.5,177.5 Z"/></g>
<g><path style="opacity:0.024" fill="#2d2d2d" d="M 826.5,177.5 C 826.5,179.167 826.5,180.833 826.5,182.5C 820.5,187.833 814.833,193.5 809.5,199.5C 808.29,199.068 807.29,198.401 806.5,197.5C 812.833,190.5 819.5,183.833 826.5,177.5 Z"/></g>
<g><path style="opacity:0.024" fill="#2d2d2d" d="M 174.5,189.5 C 174.279,192.067 173.612,194.401 172.5,196.5C 161.5,207.167 150.5,217.833 139.5,228.5C 139.325,226.379 139.659,224.379 140.5,222.5C 151.833,211.5 163.167,200.5 174.5,189.5 Z"/></g>
<g><path style="opacity:0.024" fill="#2d2d2d" d="M 592.5,191.5 C 593.404,192.209 593.737,193.209 593.5,194.5C 587.5,201.167 581.167,207.5 574.5,213.5C 573.655,212.329 572.989,210.995 572.5,209.5C 579.445,203.892 586.112,197.892 592.5,191.5 Z"/></g>
<g><path style="opacity:0.998" fill="#1b8d98" d="M 28.5,195.5 C 30.1667,195.5 31.8333,195.5 33.5,195.5C 38.5,195.5 43.5,195.5 48.5,195.5C 50.1667,195.5 51.8333,195.5 53.5,195.5C 58.5,195.5 63.5,195.5 68.5,195.5C 70.1667,195.5 71.8333,195.5 73.5,195.5C 78.5,195.5 83.5,195.5 88.5,195.5C 90.1667,195.5 91.8333,195.5 93.5,195.5C 98.5,195.5 103.5,195.5 108.5,195.5C 110.167,195.5 111.833,195.5 113.5,195.5C 118.5,195.5 123.5,195.5 128.5,195.5C 130.167,195.5 131.833,195.5 133.5,195.5C 138.032,195.182 142.366,195.515 146.5,196.5C 145.85,198.435 145.517,200.435 145.5,202.5C 143.077,208.94 141.41,215.606 140.5,222.5C 139.659,224.379 139.325,226.379 139.5,228.5C 138.132,234.404 137.132,240.404 136.5,246.5C 135.833,246.5 135.5,246.833 135.5,247.5C 134.833,247.5 134.5,247.833 134.5,248.5C 133.833,248.5 133.5,248.833 133.5,249.5C 132.833,249.5 132.5,249.833 132.5,250.5C 131.833,250.5 131.5,250.833 131.5,251.5C 128.07,255.36 125.403,259.693 123.5,264.5C 119.967,271.434 117.633,278.767 116.5,286.5C 115.85,288.435 115.517,290.435 115.5,292.5C 115.179,297.695 115.513,302.695 116.5,307.5C 116.5,308.833 116.5,310.167 116.5,311.5C 117.262,315.785 118.595,319.785 120.5,323.5C 120.263,324.791 120.596,325.791 121.5,326.5C 122.659,330.151 124.326,333.485 126.5,336.5C 126.427,338.027 127.094,339.027 128.5,339.5C 130.12,343.082 132.453,346.082 135.5,348.5C 135.833,349.5 136.5,350.167 137.5,350.5C 139.549,353.55 142.216,355.883 145.5,357.5C 145.973,358.906 146.973,359.573 148.5,359.5C 151.466,361.988 154.799,363.988 158.5,365.5C 159.391,366.11 160.391,366.443 161.5,366.5C 165.215,368.405 169.215,369.738 173.5,370.5C 174.959,370.433 176.292,370.766 177.5,371.5C 182.5,371.5 187.5,371.5 192.5,371.5C 194.621,371.675 196.621,371.341 198.5,370.5C 207.274,369.466 215.274,366.466 222.5,361.5C 233.167,355.5 241.5,347.167 247.5,336.5C 252.395,328.821 255.728,320.487 257.5,311.5C 257.833,309.5 258.167,307.5 258.5,305.5C 258.5,300.5 258.5,295.5 258.5,290.5C 258.567,289.041 258.234,287.708 257.5,286.5C 257.102,282.239 256.102,278.239 254.5,274.5C 254.567,273.041 254.234,271.708 253.5,270.5C 251.833,267.167 250.167,263.833 248.5,260.5C 248.068,259.29 247.401,258.29 246.5,257.5C 245.157,255.16 243.823,252.827 242.5,250.5C 243.046,248.865 243.38,247.199 243.5,245.5C 243.833,243.5 244.167,241.5 244.5,239.5C 246.652,232.561 248.652,225.561 250.5,218.5C 251.566,216.299 252.233,213.965 252.5,211.5C 254.734,206.304 257.067,201.137 259.5,196C 262.482,195.502 265.482,195.335 268.5,195.5C 270.167,195.5 271.833,195.5 273.5,195.5C 278.5,195.5 283.5,195.5 288.5,195.5C 290.167,195.5 291.833,195.5 293.5,195.5C 298.5,195.5 303.5,195.5 308.5,195.5C 310.167,195.5 311.833,195.5 313.5,195.5C 318.5,195.5 323.5,195.5 328.5,195.5C 330.167,195.5 331.833,195.5 333.5,195.5C 338.5,195.5 343.5,195.5 348.5,195.5C 350.167,195.5 351.833,195.5 353.5,195.5C 358.5,195.5 363.5,195.5 368.5,195.5C 370.167,195.5 371.833,195.5 373.5,195.5C 378.5,195.5 383.5,195.5 388.5,195.5C 390.167,195.5 391.833,195.5 393.5,195.5C 398.5,195.5 403.5,195.5 408.5,195.5C 410.167,195.5 411.833,195.5 413.5,195.5C 418.5,195.5 423.5,195.5 428.5,195.5C 430.167,195.5 431.833,195.5 433.5,195.5C 438.5,195.5 443.5,195.5 448.5,195.5C 450.167,195.5 451.833,195.5 453.5,195.5C 458.5,195.5 463.5,195.5 468.5,195.5C 470.167,195.5 471.833,195.5 473.5,195.5C 478.5,195.5 483.5,195.5 488.5,195.5C 490.167,195.5 491.833,195.5 493.5,195.5C 498.5,195.5 503.5,195.5 508.5,195.5C 510.167,195.5 511.833,195.5 513.5,195.5C 518.5,195.5 523.5,195.5 528.5,195.5C 530.167,195.5 531.833,195.5 533.5,195.5C 538.5,195.5 543.5,195.5 548.5,195.5C 550.167,195.5 551.833,195.5 553.5,195.5C 558.167,195.5 562.833,195.5 567.5,195.5C 567.66,197.153 568.326,198.486 569.5,199.5C 570.5,202.833 571.5,206.167 572.5,209.5C 572.989,210.995 573.655,212.329 574.5,213.5C 575.5,217.5 576.5,221.5 577.5,225.5C 578.234,226.708 578.567,228.041 578.5,229.5C 579.808,233.4 580.808,237.4 581.5,241.5C 581.833,242.833 582.167,244.167 582.5,245.5C 583.263,248.141 583.43,250.808 583,253.5C 579.697,257.775 577.197,262.442 575.5,267.5C 574.833,267.5 574.5,267.833 574.5,268.5C 573.108,271.007 572.108,273.673 571.5,276.5C 569.853,282.38 568.853,288.38 568.5,294.5C 568.5,296.167 568.5,297.833 568.5,299.5C 568.229,304.434 568.896,309.1 570.5,313.5C 570.216,315.415 570.549,317.081 571.5,318.5C 572.099,321.963 573.099,325.296 574.5,328.5C 574.932,329.71 575.599,330.71 576.5,331.5C 578,335.173 580,338.506 582.5,341.5C 582.833,342.5 583.5,343.167 584.5,343.5C 586.094,346.764 588.427,349.431 591.5,351.5C 592.167,352.833 593.167,353.833 594.5,354.5C 596.86,356.853 599.527,358.853 602.5,360.5C 603.795,361.488 605.128,362.488 606.5,363.5C 609.833,364.833 613.167,366.167 616.5,367.5C 617.708,368.234 619.041,368.567 620.5,368.5C 624.264,369.992 628.264,370.992 632.5,371.5C 634.167,371.5 635.833,371.5 637.5,371.5C 642.88,371.676 648.213,371.342 653.5,370.5C 655.894,369.985 658.228,369.319 660.5,368.5C 683.833,360.5 699.5,344.833 707.5,321.5C 708.566,319.299 709.233,316.965 709.5,314.5C 710.896,308.936 711.563,303.269 711.5,297.5C 711.5,295.833 711.5,294.167 711.5,292.5C 710.725,288.186 710.059,283.853 709.5,279.5C 709.011,278.005 708.345,276.671 707.5,275.5C 707.128,271.703 705.794,268.37 703.5,265.5C 703.34,263.847 702.674,262.514 701.5,261.5C 700.241,257.975 698.241,254.975 695.5,252.5C 695.573,250.973 694.906,249.973 693.5,249.5C 690.809,246.77 689.475,243.436 689.5,239.5C 689.567,238.041 689.234,236.708 688.5,235.5C 688.348,231.076 687.681,226.743 686.5,222.5C 686.768,220.901 686.434,219.568 685.5,218.5C 684.943,213.948 683.943,209.615 682.5,205.5C 682.768,203.901 682.434,202.568 681.5,201.5C 681.167,199.5 680.833,197.5 680.5,195.5C 683.167,195.5 685.833,195.5 688.5,195.5C 690.167,195.5 691.833,195.5 693.5,195.5C 698.5,195.5 703.5,195.5 708.5,195.5C 710.167,195.5 711.833,195.5 713.5,195.5C 718.5,195.5 723.5,195.5 728.5,195.5C 730.167,195.5 731.833,195.5 733.5,195.5C 738.5,195.5 743.5,195.5 748.5,195.5C 750.167,195.5 751.833,195.5 753.5,195.5C 758.5,195.5 763.5,195.5 768.5,195.5C 770.167,195.5 771.833,195.5 773.5,195.5C 778.5,195.5 783.5,195.5 788.5,195.5C 790.167,195.5 791.833,195.5 793.5,195.5C 797.913,195.687 802.246,196.354 806.5,197.5C 807.29,198.401 808.29,199.068 809.5,199.5C 812.473,201.147 815.14,203.147 817.5,205.5C 818.167,206.833 819.167,207.833 820.5,208.5C 822.292,211.784 824.292,214.784 826.5,217.5C 826.5,455.5 826.5,693.5 826.5,931.5C 825.129,933.936 824.129,936.603 823.5,939.5C 822.833,939.5 822.5,939.833 822.5,940.5C 819.861,945.139 816.194,948.806 811.5,951.5C 810.833,951.5 810.5,951.833 810.5,952.5C 809.833,952.5 809.5,952.833 809.5,953.5C 806.603,954.129 803.936,955.129 801.5,956.5C 542.833,956.5 284.167,956.5 25.5,956.5C 22.5721,955.183 19.5721,953.85 16.5,952.5C 15.7095,951.599 14.7095,950.932 13.5,950.5C 10.5,948.167 7.83333,945.5 5.5,942.5C 5.57298,940.973 4.90632,939.973 3.5,939.5C 2.5376,935.605 1.20427,931.939 -0.5,928.5C -0.5,693.5 -0.5,458.5 -0.5,223.5C 3.55511,208.446 13.2218,199.113 28.5,195.5 Z M 172.5,196.5 C 170.834,203.166 169.167,209.833 167.5,216.5C 157.167,226.5 146.833,236.5 136.5,246.5C 137.132,240.404 138.132,234.404 139.5,228.5C 150.5,217.833 161.5,207.167 172.5,196.5 Z M 682.5,205.5 C 683.943,209.615 684.943,213.948 685.5,218.5C 678.167,225.5 670.833,232.5 663.5,239.5C 662.941,235.147 662.275,230.814 661.5,226.5C 668.833,219.833 675.833,212.833 682.5,205.5 Z M 599.5,209.5 C 600.91,213.397 601.91,217.397 602.5,221.5C 595.5,228.167 588.5,234.833 581.5,241.5C 580.808,237.4 579.808,233.4 578.5,229.5C 585.5,222.833 592.5,216.167 599.5,209.5 Z M 250.5,218.5 C 248.652,225.561 246.652,232.561 244.5,239.5C 234.833,248.833 225.167,258.167 215.5,267.5C 216.249,261.845 216.915,256.178 217.5,250.5C 228.5,239.833 239.5,229.167 250.5,218.5 Z M 686.5,222.5 C 687.681,226.743 688.348,231.076 688.5,235.5C 680.833,242.833 673.167,250.167 665.5,257.5C 665.331,252.819 664.998,248.152 664.5,243.5C 671.833,236.5 679.167,229.5 686.5,222.5 Z M 165.5,223.5 C 164.833,229.167 164.167,234.833 163.5,240.5C 147.833,255.833 132.167,271.167 116.5,286.5C 117.633,278.767 119.967,271.434 123.5,264.5C 137.5,250.833 151.5,237.167 165.5,223.5 Z M 604.5,225.5 C 605.167,229.5 605.833,233.5 606.5,237.5C 596.167,247.5 585.833,257.5 575.5,267.5C 577.197,262.442 579.697,257.775 583,253.5C 583.43,250.808 583.263,248.141 582.5,245.5C 589.554,238.442 596.888,231.775 604.5,225.5 Z M 689.5,239.5 C 689.475,243.436 690.809,246.77 693.5,249.5C 685.167,258.5 676.5,267.167 667.5,275.5C 666.771,270.87 666.437,266.203 666.5,261.5C 674.167,254.167 681.833,246.833 689.5,239.5 Z M 607.5,241.5 C 608.49,245.772 609.156,250.106 609.5,254.5C 595.833,267.833 582.167,281.167 568.5,294.5C 568.853,288.38 569.853,282.38 571.5,276.5C 583.5,264.833 595.5,253.167 607.5,241.5 Z M 243.5,245.5 C 243.38,247.199 243.046,248.865 242.5,250.5C 243.823,252.827 245.157,255.16 246.5,257.5C 235.833,267.833 225.167,278.167 214.5,288.5C 214.324,283.12 214.658,277.787 215.5,272.5C 224.833,263.5 234.167,254.5 243.5,245.5 Z M 162.5,246.5 C 161.543,252.116 160.876,257.783 160.5,263.5C 145.5,277.833 130.833,292.5 116.5,307.5C 115.513,302.695 115.179,297.695 115.5,292.5C 131.167,277.167 146.833,261.833 162.5,246.5 Z M 695.5,252.5 C 698.241,254.975 700.241,257.975 701.5,261.5C 690.5,273.167 679.167,284.5 667.5,295.5C 667.5,290.5 667.5,285.5 667.5,280.5C 677.167,271.5 686.5,262.167 695.5,252.5 Z M 610.5,258.5 C 610.998,263.152 611.331,267.819 611.5,272.5C 597.5,285.833 583.833,299.5 570.5,313.5C 568.896,309.1 568.229,304.434 568.5,299.5C 582.5,285.833 596.5,272.167 610.5,258.5 Z M 248.5,260.5 C 250.167,263.833 251.833,267.167 253.5,270.5C 221.5,301.833 189.833,333.5 158.5,365.5C 154.799,363.988 151.466,361.988 148.5,359.5C 160.833,347.833 172.833,335.833 184.5,323.5C 188.582,323.656 192.582,323.156 196.5,322C 207.921,316.005 213.921,306.505 214.5,293.5C 225.833,282.5 237.167,271.5 248.5,260.5 Z M 703.5,265.5 C 705.794,268.37 707.128,271.703 707.5,275.5C 677.167,306.167 646.833,336.833 616.5,367.5C 613.167,366.167 609.833,364.833 606.5,363.5C 606.369,362.761 606.536,362.094 607,361.5C 619.702,348.965 632.202,336.298 644.5,323.5C 656.144,320.523 663.477,313.189 666.5,301.5C 678.833,289.5 691.167,277.5 703.5,265.5 Z M 159.5,269.5 C 159.5,274.5 159.5,279.5 159.5,284.5C 146.167,297.167 133.167,310.167 120.5,323.5C 118.595,319.785 117.262,315.785 116.5,311.5C 130.833,297.5 145.167,283.5 159.5,269.5 Z M 254.5,274.5 C 256.102,278.239 257.102,282.239 257.5,286.5C 229.167,314.167 201.167,342.167 173.5,370.5C 169.215,369.738 165.215,368.405 161.5,366.5C 192.5,335.833 223.5,305.167 254.5,274.5 Z M 612.5,277.5 C 612.5,282.167 612.5,286.833 612.5,291.5C 599.833,303.833 587.167,316.167 574.5,328.5C 573.099,325.296 572.099,321.963 571.5,318.5C 583.911,304.586 596.911,291.086 610.5,278C 611.094,277.536 611.761,277.369 612.5,277.5 Z M 709.5,279.5 C 710.059,283.853 710.725,288.186 711.5,292.5C 684.833,318.5 658.5,344.833 632.5,371.5C 628.264,370.992 624.264,369.992 620.5,368.5C 649.833,338.5 679.5,308.833 709.5,279.5 Z M 159.5,289.5 C 159.372,293.881 159.705,298.215 160.5,302.5C 149.5,314.167 138.167,325.5 126.5,336.5C 124.326,333.485 122.659,330.151 121.5,326.5C 134.167,314.167 146.833,301.833 159.5,289.5 Z M 258.5,290.5 C 258.5,295.5 258.5,300.5 258.5,305.5C 236.167,327.167 214.167,349.167 192.5,371.5C 187.5,371.5 182.5,371.5 177.5,371.5C 204.167,344.167 231.167,317.167 258.5,290.5 Z M 612.5,296.5 C 613.344,300.211 614.344,303.877 615.5,307.5C 604.5,318.833 593.5,330.167 582.5,341.5C 580,338.506 578,335.173 576.5,331.5C 588.5,319.833 600.5,308.167 612.5,296.5 Z M 711.5,297.5 C 711.563,303.269 710.896,308.936 709.5,314.5C 690.5,332.833 671.833,351.5 653.5,370.5C 648.213,371.342 642.88,371.676 637.5,371.5C 661.833,346.5 686.5,321.833 711.5,297.5 Z M 162.5,306.5 C 163.68,309.54 165.347,312.206 167.5,314.5C 167.631,315.239 167.464,315.906 167,316.5C 156.298,327.035 145.798,337.702 135.5,348.5C 132.453,346.082 130.12,343.082 128.5,339.5C 139.833,328.5 151.167,317.5 162.5,306.5 Z M 257.5,311.5 C 255.728,320.487 252.395,328.821 247.5,336.5C 238.833,344.5 230.5,352.833 222.5,361.5C 215.274,366.466 207.274,369.466 198.5,370.5C 217.833,350.5 237.5,330.833 257.5,311.5 Z M 618.5,311.5 C 619.81,314.473 621.81,316.807 624.5,318.5C 613.833,329.833 602.833,340.833 591.5,351.5C 588.427,349.431 586.094,346.764 584.5,343.5C 595.298,333.202 605.965,322.702 616.5,312C 617.094,311.536 617.761,311.369 618.5,311.5 Z M 171.5,318.5 C 174.122,320.644 177.122,321.977 180.5,322.5C 169.167,334.5 157.5,346.167 145.5,357.5C 142.216,355.883 139.549,353.55 137.5,350.5C 148.298,340.202 158.965,329.702 169.5,319C 170.094,318.536 170.761,318.369 171.5,318.5 Z M 627.5,320.5 C 631.168,322.721 635.168,323.721 639.5,323.5C 627.5,336.167 615.167,348.5 602.5,360.5C 599.527,358.853 596.86,356.853 594.5,354.5C 605.5,343.167 616.5,331.833 627.5,320.5 Z M 707.5,321.5 C 699.5,344.833 683.833,360.5 660.5,368.5C 675.833,352.5 691.5,336.833 707.5,321.5 Z M 353.5,369.5 C 324.167,399.5 294.5,429.167 264.5,458.5C 270.984,446.199 277.984,434.199 285.5,422.5C 302.833,405.833 319.833,388.833 336.5,371.5C 342.047,369.978 347.714,369.312 353.5,369.5 Z M 358.5,369.5 C 362.924,369.652 367.257,370.319 371.5,371.5C 326.167,417.5 280.5,463.167 234.5,508.5C 241.57,496.029 248.903,483.696 256.5,471.5C 290.833,437.833 324.833,403.833 358.5,369.5 Z M 375.5,372.5 C 378.907,374.181 382.241,375.847 385.5,377.5C 325.833,437.833 265.833,497.833 205.5,557.5C 212.066,544.699 219.4,532.365 227.5,520.5C 277.167,471.5 326.5,422.167 375.5,372.5 Z M 327.5,375.5 C 316.5,387.167 305.167,398.5 293.5,409.5C 300.5,393.833 311.833,382.5 327.5,375.5 Z M 388.5,379.5 C 392.173,381 395.506,383 398.5,385.5C 335.167,448.5 271.833,511.5 208.5,574.5C 205.366,573.099 202.366,571.432 199.5,569.5C 262.5,506.167 325.5,442.833 388.5,379.5 Z M 401.5,386.5 C 404.709,388.265 407.709,390.265 410.5,392.5C 347.5,455.833 284.5,519.167 221.5,582.5C 218.131,580.485 214.798,578.485 211.5,576.5C 275.167,513.5 338.5,450.167 401.5,386.5 Z M 414.5,394.5 C 417.339,396.42 420.339,398.087 423.5,399.5C 360.5,463.167 297.167,526.5 233.5,589.5C 230.339,588.087 227.339,586.42 224.5,584.5C 287.5,520.833 350.833,457.5 414.5,394.5 Z M 426.5,401.5 C 429.582,403.372 432.249,405.705 434.5,408.5C 371.833,471.5 309.167,534.5 246.5,597.5C 243.291,595.735 240.291,593.735 237.5,591.5C 300.5,528.167 363.5,464.833 426.5,401.5 Z M 437.5,411.5 C 440.55,413.549 442.883,416.216 444.5,419.5C 382.5,481.167 320.5,542.833 258.5,604.5C 255.339,603.087 252.339,601.42 249.5,599.5C 311.833,536.5 374.5,473.833 437.5,411.5 Z M 446.5,422.5 C 448.694,425.554 450.361,428.888 451.5,432.5C 391.167,492.167 331.167,552.167 271.5,612.5C 268.291,610.735 265.291,608.735 262.5,606.5C 323.5,544.833 384.833,483.5 446.5,422.5 Z M 452.5,436.5 C 454.245,440.2 455.245,444.2 455.5,448.5C 398.167,505.167 341.167,562.167 284.5,619.5C 281.183,617.863 277.85,616.196 274.5,614.5C 333.5,554.833 392.833,495.5 452.5,436.5 Z M 456.5,452.5 C 456.56,458.295 455.893,463.962 454.5,469.5C 401.5,521.833 348.833,574.5 296.5,627.5C 293.291,625.735 290.291,623.735 287.5,621.5C 343.5,564.833 399.833,508.5 456.5,452.5 Z M 452.5,476.5 C 448.049,487.286 442.716,497.619 436.5,507.5C 393.833,549.5 351.5,591.833 309.5,634.5C 305.827,633 302.494,631 299.5,628.5C 350.5,577.833 401.5,527.167 452.5,476.5 Z M 427.5,521.5 C 420.934,534.301 413.6,546.635 405.5,558.5C 377.5,586.167 349.5,613.833 321.5,641.5C 318.24,640.226 315.24,638.56 312.5,636.5C 350.5,597.833 388.833,559.5 427.5,521.5 Z M 603.5,539.5 C 550.5,593.167 497.167,646.5 443.5,699.5C 444.021,693.81 444.688,688.144 445.5,682.5C 492.833,635.833 539.833,588.833 586.5,541.5C 592.057,540.264 597.723,539.597 603.5,539.5 Z M 608.5,539.5 C 613.5,539.5 618.5,539.5 623.5,539.5C 563.833,599.833 503.833,659.833 443.5,719.5C 443.5,714.5 443.5,709.5 443.5,704.5C 498.833,649.833 553.833,594.833 608.5,539.5 Z M 628.5,539.5 C 632.812,540.248 637.146,540.914 641.5,541.5C 576.5,607.167 511.167,672.5 445.5,737.5C 444.873,732.859 444.54,728.193 444.5,723.5C 506.167,662.5 567.5,601.167 628.5,539.5 Z M 580.5,542.5 C 536.167,587.5 491.5,632.167 446.5,676.5C 447.728,669.249 449.728,662.249 452.5,655.5C 488.5,620.167 524.167,584.5 559.5,548.5C 566.164,545.416 573.164,543.416 580.5,542.5 Z M 645.5,542.5 C 649.761,542.898 653.761,543.898 657.5,545.5C 589.451,614.549 520.785,682.882 451.5,750.5C 448.607,748.252 446.94,745.252 446.5,741.5C 513.167,675.5 579.5,609.167 645.5,542.5 Z M 661.5,546.5 C 665.223,547.297 668.89,548.297 672.5,549.5C 672.631,550.239 672.464,550.906 672,551.5C 606.965,616.368 542.132,681.368 477.5,746.5C 472.57,748.757 467.57,750.924 462.5,753C 459.961,753.796 457.628,753.629 455.5,752.5C 524.5,684.167 593.167,615.5 661.5,546.5 Z M 552.5,550.5 C 520.5,583.167 488.167,615.5 455.5,647.5C 458.998,636.169 464.331,625.836 471.5,616.5C 488.5,600.167 505.167,583.5 521.5,566.5C 531.107,559.862 541.44,554.529 552.5,550.5 Z M 676.5,551.5 C 680.147,552.657 683.48,554.323 686.5,556.5C 629.167,614.167 571.833,671.833 514.5,729.5C 505.672,733.887 496.672,737.887 487.5,741.5C 550.5,678.167 613.5,614.833 676.5,551.5 Z M 690.5,558.5 C 693.992,559.41 696.992,561.076 699.5,563.5C 649.833,613.5 600.167,663.5 550.5,713.5C 541.622,717.772 532.622,721.772 523.5,725.5C 578.833,669.5 634.5,613.833 690.5,558.5 Z M 703.5,565.5 C 706.167,567.167 708.833,568.833 711.5,570.5C 711.631,571.239 711.464,571.906 711,572.5C 669.632,613.701 628.465,655.035 587.5,696.5C 578.873,701.268 569.873,705.268 560.5,708.5C 607.833,660.5 655.5,612.833 703.5,565.5 Z M 398.5,570.5 C 391.43,582.971 384.097,595.304 376.5,607.5C 362.167,621.167 348.167,635.167 334.5,649.5C 330.827,648 327.494,646 324.5,643.5C 349.167,619.167 373.833,594.833 398.5,570.5 Z M 714.5,573.5 C 717.81,575.482 720.81,577.815 723.5,580.5C 689.833,613.5 656.5,646.833 623.5,680.5C 614.622,684.772 605.622,688.772 596.5,692.5C 635.833,652.833 675.167,613.167 714.5,573.5 Z M 725.5,582.5 C 728.192,584.862 730.859,587.196 733.5,589.5C 709.167,614.167 684.833,638.833 660.5,663.5C 651.873,668.268 642.873,672.268 633.5,675.5C 664.167,644.5 694.833,613.5 725.5,582.5 Z M 735.5,592.5 C 738.5,594.833 741.167,597.5 743.5,600.5C 727.5,615.833 711.833,631.5 696.5,647.5C 687.622,651.772 678.622,655.772 669.5,659.5C 691.5,637.167 713.5,614.833 735.5,592.5 Z M 186.5,596.5 C 183.5,600.167 180.167,603.5 176.5,606.5C 178.305,602.227 180.639,598.227 183.5,594.5C 184.518,595.193 185.518,595.859 186.5,596.5 Z M 189.5,598.5 C 193.118,600.137 196.451,602.137 199.5,604.5C 182.167,621.5 164.833,638.5 147.5,655.5C 154.066,642.699 161.4,630.365 169.5,618.5C 176.5,612.167 183.167,605.5 189.5,598.5 Z M 745.5,603.5 C 748.231,605.946 750.231,608.946 751.5,612.5C 745.167,618.167 739.167,624.167 733.5,630.5C 724.861,635.27 715.861,639.27 706.5,642.5C 719.167,629.167 732.167,616.167 745.5,603.5 Z M 202.5,606.5 C 205.634,607.901 208.634,609.568 211.5,611.5C 180.833,642.833 149.833,673.833 118.5,704.5C 124.984,692.199 131.984,680.199 139.5,668.5C 160.5,647.833 181.5,627.167 202.5,606.5 Z M 214.5,613.5 C 218.118,615.137 221.451,617.137 224.5,619.5C 179.167,664.5 133.833,709.5 88.5,754.5C 95.5701,742.029 102.903,729.696 110.5,717.5C 145.5,683.167 180.167,648.5 214.5,613.5 Z M 750.5,618.5 C 749.5,622.833 746.833,625.5 742.5,626.5C 744.833,623.5 747.5,620.833 750.5,618.5 Z M 368.5,620.5 C 362.276,631.942 355.776,643.275 349,654.5C 348.261,655.574 347.261,656.241 346,656.5C 343.073,654.955 340.24,653.288 337.5,651.5C 347.5,640.833 357.833,630.5 368.5,620.5 Z M 227.5,621.5 C 230.76,622.774 233.76,624.44 236.5,626.5C 182.833,680.833 128.833,734.833 74.5,788.5C 75.3006,780.615 77.634,773.282 81.5,766.5C 130.167,718.167 178.833,669.833 227.5,621.5 Z M 239.5,628.5 C 243.173,630 246.506,632 249.5,634.5C 191.5,692.167 133.5,749.833 75.5,807.5C 74.6167,802.897 74.2834,798.23 74.5,793.5C 129.833,738.833 184.833,683.833 239.5,628.5 Z M 253.5,636.5 C 256.203,638.181 258.869,639.847 261.5,641.5C 201.5,702.167 141.167,762.5 80.5,822.5C 78.3987,819.203 77.0653,815.537 76.5,811.5C 134.965,753.535 193.299,695.368 251.5,637C 252.094,636.536 252.761,636.369 253.5,636.5 Z M 264.5,643.5 C 268.173,645 271.506,647 274.5,649.5C 212.167,711.167 150.167,773.167 88.5,835.5C 85.7589,833.025 83.7589,830.025 82.5,826.5C 143.167,765.5 203.833,704.5 264.5,643.5 Z M 277.5,650.5 C 280.709,652.265 283.709,654.265 286.5,656.5C 223.833,719.833 160.833,782.833 97.5,845.5C 94.8333,843.5 92.5,841.167 90.5,838.5C 152.833,775.833 215.167,713.167 277.5,650.5 Z M 289.5,658.5 C 292.817,660.137 296.15,661.804 299.5,663.5C 236.5,727.167 173.167,790.5 109.5,853.5C 105.946,852.231 102.946,850.231 100.5,847.5C 163.833,784.833 226.833,721.833 289.5,658.5 Z M 763.5,664.5 C 766.187,664.336 768.854,664.503 771.5,665C 773.324,665.66 774.657,666.827 775.5,668.5C 707.167,736.5 638.833,804.5 570.5,872.5C 566.653,872.106 562.986,871.106 559.5,869.5C 627.5,801.167 695.5,732.833 763.5,664.5 Z M 302.5,665.5 C 305.709,667.265 308.709,669.265 311.5,671.5C 248.5,734.833 185.5,798.167 122.5,861.5C 119.291,859.735 116.291,857.735 113.5,855.5C 176.5,792.167 239.5,728.833 302.5,665.5 Z M 753.5,669.5 C 687.5,735.833 621.5,802.167 555.5,868.5C 551.65,867.072 547.983,865.406 544.5,863.5C 605.5,803.167 666.167,742.5 726.5,681.5C 735.139,676.73 744.139,672.73 753.5,669.5 Z M 778.5,671.5 C 779.552,675.426 780.218,679.426 780.5,683.5C 715.833,747.5 651.5,811.833 587.5,876.5C 582.929,876.023 578.596,875.023 574.5,873.5C 641.965,806.535 709.299,739.368 776.5,672C 777.094,671.536 777.761,671.369 778.5,671.5 Z M 315.5,673.5 C 318.661,674.913 321.661,676.58 324.5,678.5C 261.5,742.167 198.167,805.5 134.5,868.5C 131.291,866.735 128.291,864.735 125.5,862.5C 188.833,799.5 252.167,736.5 315.5,673.5 Z M 327.5,680.5 C 330.503,680.988 331.669,682.655 331,685.5C 327.005,692.317 322.838,698.984 318.5,705.5C 261.5,762.167 204.5,818.833 147.5,875.5C 144.008,874.59 141.008,872.924 138.5,870.5C 201.5,807.167 264.5,743.833 327.5,680.5 Z M 717.5,685.5 C 658.833,744.5 600.167,803.5 541.5,862.5C 538.167,860.833 534.833,859.167 531.5,857.5C 584.5,804.167 637.5,750.833 690.5,697.5C 699.378,693.228 708.378,689.228 717.5,685.5 Z M 781.5,687.5 C 782.127,692.141 782.46,696.807 782.5,701.5C 723.167,760.167 664.167,819.167 605.5,878.5C 600.859,877.873 596.193,877.54 591.5,877.5C 654.5,813.833 717.833,750.5 781.5,687.5 Z M 680.5,702.5 C 629.833,753.5 579.167,804.5 528.5,855.5C 524.946,854.231 521.946,852.231 519.5,849.5C 564.167,804.5 608.833,759.5 653.5,714.5C 662.139,709.73 671.139,705.73 680.5,702.5 Z M 782.5,706.5 C 782.5,711.5 782.5,716.5 782.5,721.5C 730.167,773.167 678.167,825.167 626.5,877.5C 621.26,878.449 615.927,878.782 610.5,878.5C 667.5,820.833 724.833,763.5 782.5,706.5 Z M 310.5,718.5 C 304.016,730.801 297.016,742.801 289.5,754.5C 246.833,796.5 204.5,838.833 162.5,881.5C 158.621,880.542 154.955,879.209 151.5,877.5C 204.167,824.167 257.167,771.167 310.5,718.5 Z M 644.5,718.5 C 601.833,761.5 559.167,804.5 516.5,847.5C 513.357,845.758 510.357,843.758 507.5,841.5C 544.167,804.5 580.833,767.5 617.5,730.5C 626.378,726.228 635.378,722.228 644.5,718.5 Z M 781.5,727.5 C 781.009,733.618 780.009,739.618 778.5,745.5C 735.167,788.167 692.167,831.167 649.5,874.5C 643.546,875.715 637.546,876.715 631.5,877.5C 681.167,827.167 731.167,777.167 781.5,727.5 Z M 607.5,735.5 C 573.5,770.167 539.167,804.5 504.5,838.5C 501.418,836.628 498.751,834.295 496.5,831.5C 524.833,803.833 552.833,775.833 580.5,747.5C 589.139,742.73 598.139,738.73 607.5,735.5 Z M 571.5,751.5 C 545.833,777.5 520.167,803.5 494.5,829.5C 491.5,827.167 488.833,824.5 486.5,821.5C 506.167,802.5 525.5,783.167 544.5,763.5C 553.378,759.228 562.378,755.228 571.5,751.5 Z M 776.5,752.5 C 775.012,760.633 772.345,768.3 768.5,775.5C 738.5,804.833 708.833,834.5 679.5,864.5C 672.127,867.958 664.46,870.625 656.5,872.5C 696.167,832.167 736.167,792.167 776.5,752.5 Z M 281.5,767.5 C 274.934,780.301 267.6,792.635 259.5,804.5C 233.167,830.167 207.167,856.167 181.5,882.5C 176.5,882.5 171.5,882.5 166.5,882.5C 204.5,843.833 242.833,805.5 281.5,767.5 Z M 534.5,768.5 C 518.167,785.5 501.5,802.167 484.5,818.5C 481.705,816.249 479.372,813.582 477.5,810.5C 487.833,800.833 497.833,790.833 507.5,780.5C 516.139,775.73 525.139,771.73 534.5,768.5 Z M 498.5,784.5 C 491.167,792.5 483.5,800.167 475.5,807.5C 474.254,802.808 475.088,798.475 478,794.5C 484.38,790.227 491.213,786.893 498.5,784.5 Z M 764.5,784.5 C 747.833,817.833 722.833,842.833 689.5,859.5C 714.167,834.167 739.167,809.167 764.5,784.5 Z M 251.5,817.5 C 244.934,830.301 237.6,842.635 229.5,854.5C 223.833,859.5 218.5,864.833 213.5,870.5C 205.88,876.489 197.213,880.156 187.5,881.5C 208.5,859.833 229.833,838.5 251.5,817.5 Z"/></g>
<g><path style="opacity:0.024" fill="#2d2d2d" d="M 826.5,197.5 C 826.5,199.167 826.5,200.833 826.5,202.5C 824.167,204.167 822.167,206.167 820.5,208.5C 819.167,207.833 818.167,206.833 817.5,205.5C 820.5,202.833 823.5,200.167 826.5,197.5 Z"/></g>
<g><path style="opacity:0.024" fill="#2d2d2d" d="M 681.5,201.5 C 682.434,202.568 682.768,203.901 682.5,205.5C 675.833,212.833 668.833,219.833 661.5,226.5C 661.167,225.167 660.833,223.833 660.5,222.5C 667.833,215.833 674.833,208.833 681.5,201.5 Z"/></g>
<g><path style="opacity:0.024" fill="#2d2d2d" d="M 597.5,204.5 C 598.309,206.028 598.976,207.694 599.5,209.5C 592.5,216.167 585.5,222.833 578.5,229.5C 578.567,228.041 578.234,226.708 577.5,225.5C 584.891,219.111 591.557,212.111 597.5,204.5 Z"/></g>
<g><path style="opacity:0.024" fill="#2d2d2d" d="M 252.5,211.5 C 252.233,213.965 251.566,216.299 250.5,218.5C 239.5,229.167 228.5,239.833 217.5,250.5C 218.15,248.565 218.483,246.565 218.5,244.5C 229.833,233.5 241.167,222.5 252.5,211.5 Z"/></g>
<g><path style="opacity:0.024" fill="#2d2d2d" d="M 167.5,216.5 C 167.167,218.5 166.833,220.5 166.5,222.5C 165.833,222.5 165.5,222.833 165.5,223.5C 151.5,237.167 137.5,250.833 123.5,264.5C 125.403,259.693 128.07,255.36 131.5,251.5C 132.167,251.5 132.5,251.167 132.5,250.5C 133.167,250.5 133.5,250.167 133.5,249.5C 134.167,249.5 134.5,249.167 134.5,248.5C 135.167,248.5 135.5,248.167 135.5,247.5C 136.167,247.5 136.5,247.167 136.5,246.5C 146.833,236.5 157.167,226.5 167.5,216.5 Z"/></g>
<g><path style="opacity:0.024" fill="#2d2d2d" d="M 685.5,218.5 C 686.434,219.568 686.768,220.901 686.5,222.5C 679.167,229.5 671.833,236.5 664.5,243.5C 663.766,242.292 663.433,240.959 663.5,239.5C 670.833,232.5 678.167,225.5 685.5,218.5 Z"/></g>
<g><path style="opacity:0.024" fill="#2d2d2d" d="M 602.5,221.5 C 603.345,222.671 604.011,224.005 604.5,225.5C 596.888,231.775 589.554,238.442 582.5,245.5C 582.167,244.167 581.833,242.833 581.5,241.5C 588.5,234.833 595.5,228.167 602.5,221.5 Z"/></g>
<g><path style="opacity:0.024" fill="#2d2d2d" d="M 688.5,235.5 C 689.234,236.708 689.567,238.041 689.5,239.5C 681.833,246.833 674.167,254.167 666.5,261.5C 666.567,260.041 666.234,258.708 665.5,257.5C 673.167,250.167 680.833,242.833 688.5,235.5 Z"/></g>
<g><path style="opacity:0.024" fill="#2d2d2d" d="M 606.5,237.5 C 607.434,238.568 607.768,239.901 607.5,241.5C 595.5,253.167 583.5,264.833 571.5,276.5C 572.108,273.673 573.108,271.007 574.5,268.5C 575.167,268.5 575.5,268.167 575.5,267.5C 585.833,257.5 596.167,247.5 606.5,237.5 Z"/></g>
<g><path style="opacity:0.024" fill="#2d2d2d" d="M 244.5,239.5 C 244.167,241.5 243.833,243.5 243.5,245.5C 234.167,254.5 224.833,263.5 215.5,272.5C 215.5,270.833 215.5,269.167 215.5,267.5C 225.167,258.167 234.833,248.833 244.5,239.5 Z"/></g>
<g><path style="opacity:0.024" fill="#2d2d2d" d="M 163.5,240.5 C 162.85,242.435 162.517,244.435 162.5,246.5C 146.833,261.833 131.167,277.167 115.5,292.5C 115.517,290.435 115.85,288.435 116.5,286.5C 132.167,271.167 147.833,255.833 163.5,240.5 Z"/></g>
<g><path style="opacity:0.024" fill="#2d2d2d" d="M 693.5,249.5 C 694.906,249.973 695.573,250.973 695.5,252.5C 686.5,262.167 677.167,271.5 667.5,280.5C 667.5,278.833 667.5,277.167 667.5,275.5C 676.5,267.167 685.167,258.5 693.5,249.5 Z"/></g>
<g><path style="opacity:0.024" fill="#2d2d2d" d="M 609.5,254.5 C 610.234,255.708 610.567,257.041 610.5,258.5C 596.5,272.167 582.5,285.833 568.5,299.5C 568.5,297.833 568.5,296.167 568.5,294.5C 582.167,281.167 595.833,267.833 609.5,254.5 Z"/></g>
<g><path style="opacity:0.024" fill="#2d2d2d" d="M 246.5,257.5 C 247.401,258.29 248.068,259.29 248.5,260.5C 237.167,271.5 225.833,282.5 214.5,293.5C 214.5,291.833 214.5,290.167 214.5,288.5C 225.167,278.167 235.833,267.833 246.5,257.5 Z"/></g>
<g><path style="opacity:0.024" fill="#2d2d2d" d="M 701.5,261.5 C 702.674,262.514 703.34,263.847 703.5,265.5C 691.167,277.5 678.833,289.5 666.5,301.5C 666.517,299.435 666.85,297.435 667.5,295.5C 679.167,284.5 690.5,273.167 701.5,261.5 Z"/></g>
<g><path style="opacity:0.024" fill="#2d2d2d" d="M 160.5,263.5 C 160.5,265.167 160.5,266.833 160.5,268.5C 159.833,268.5 159.5,268.833 159.5,269.5C 145.167,283.5 130.833,297.5 116.5,311.5C 116.5,310.167 116.5,308.833 116.5,307.5C 130.833,292.5 145.5,277.833 160.5,263.5 Z"/></g>
<g><path style="opacity:0.024" fill="#2d2d2d" d="M 253.5,270.5 C 254.234,271.708 254.567,273.041 254.5,274.5C 223.5,305.167 192.5,335.833 161.5,366.5C 160.391,366.443 159.391,366.11 158.5,365.5C 189.833,333.5 221.5,301.833 253.5,270.5 Z"/></g>
<g><path style="opacity:0.024" fill="#2d2d2d" d="M 611.5,272.5 C 611.366,274.292 611.699,275.958 612.5,277.5C 611.761,277.369 611.094,277.536 610.5,278C 596.911,291.086 583.911,304.586 571.5,318.5C 570.549,317.081 570.216,315.415 570.5,313.5C 583.833,299.5 597.5,285.833 611.5,272.5 Z"/></g>
<g><path style="opacity:0.024" fill="#2d2d2d" d="M 707.5,275.5 C 708.345,276.671 709.011,278.005 709.5,279.5C 679.5,308.833 649.833,338.5 620.5,368.5C 619.041,368.567 617.708,368.234 616.5,367.5C 646.833,336.833 677.167,306.167 707.5,275.5 Z"/></g>
<g><path style="opacity:0.024" fill="#2d2d2d" d="M 159.5,284.5 C 159.5,286.167 159.5,287.833 159.5,289.5C 146.833,301.833 134.167,314.167 121.5,326.5C 120.596,325.791 120.263,324.791 120.5,323.5C 133.167,310.167 146.167,297.167 159.5,284.5 Z"/></g>
<g><path style="opacity:0.024" fill="#2d2d2d" d="M 257.5,286.5 C 258.234,287.708 258.567,289.041 258.5,290.5C 231.167,317.167 204.167,344.167 177.5,371.5C 176.292,370.766 174.959,370.433 173.5,370.5C 201.167,342.167 229.167,314.167 257.5,286.5 Z"/></g>
<g><path style="opacity:0.024" fill="#2d2d2d" d="M 612.5,291.5 C 612.5,293.167 612.5,294.833 612.5,296.5C 600.5,308.167 588.5,319.833 576.5,331.5C 575.599,330.71 574.932,329.71 574.5,328.5C 587.167,316.167 599.833,303.833 612.5,291.5 Z"/></g>
<g><path style="opacity:0.024" fill="#2d2d2d" d="M 711.5,292.5 C 711.5,294.167 711.5,295.833 711.5,297.5C 686.5,321.833 661.833,346.5 637.5,371.5C 635.833,371.5 634.167,371.5 632.5,371.5C 658.5,344.833 684.833,318.5 711.5,292.5 Z"/></g>
<g><path style="opacity:0.024" fill="#2d2d2d" d="M 160.5,302.5 C 161.345,303.671 162.011,305.005 162.5,306.5C 151.167,317.5 139.833,328.5 128.5,339.5C 127.094,339.027 126.427,338.027 126.5,336.5C 138.167,325.5 149.5,314.167 160.5,302.5 Z"/></g>
<g><path style="opacity:0.024" fill="#2d2d2d" d="M 258.5,305.5 C 258.167,307.5 257.833,309.5 257.5,311.5C 237.5,330.833 217.833,350.5 198.5,370.5C 196.621,371.341 194.621,371.675 192.5,371.5C 214.167,349.167 236.167,327.167 258.5,305.5 Z"/></g>
<g><path style="opacity:0.024" fill="#2d2d2d" d="M 615.5,307.5 C 616.488,308.795 617.488,310.128 618.5,311.5C 617.761,311.369 617.094,311.536 616.5,312C 605.965,322.702 595.298,333.202 584.5,343.5C 583.5,343.167 582.833,342.5 582.5,341.5C 593.5,330.167 604.5,318.833 615.5,307.5 Z"/></g>
<g><path style="opacity:0.024" fill="#2d2d2d" d="M 167.5,314.5 C 168.833,315.833 170.167,317.167 171.5,318.5C 170.761,318.369 170.094,318.536 169.5,319C 158.965,329.702 148.298,340.202 137.5,350.5C 136.5,350.167 135.833,349.5 135.5,348.5C 145.798,337.702 156.298,327.035 167,316.5C 167.464,315.906 167.631,315.239 167.5,314.5 Z"/></g>
<g><path style="opacity:0.024" fill="#2d2d2d" d="M 709.5,314.5 C 709.233,316.965 708.566,319.299 707.5,321.5C 691.5,336.833 675.833,352.5 660.5,368.5C 658.228,369.319 655.894,369.985 653.5,370.5C 671.833,351.5 690.5,332.833 709.5,314.5 Z"/></g>
<g><path style="opacity:0.024" fill="#2d2d2d" d="M 624.5,318.5 C 625.71,318.932 626.71,319.599 627.5,320.5C 616.5,331.833 605.5,343.167 594.5,354.5C 593.167,353.833 592.167,352.833 591.5,351.5C 602.833,340.833 613.833,329.833 624.5,318.5 Z"/></g>
<g><path style="opacity:0.024" fill="#2d2d2d" d="M 180.5,322.5 C 181.708,323.234 183.041,323.567 184.5,323.5C 172.833,335.833 160.833,347.833 148.5,359.5C 146.973,359.573 145.973,358.906 145.5,357.5C 157.5,346.167 169.167,334.5 180.5,322.5 Z"/></g>
<g><path style="opacity:0.024" fill="#2d2d2d" d="M 639.5,323.5 C 641.167,323.5 642.833,323.5 644.5,323.5C 632.202,336.298 619.702,348.965 607,361.5C 606.536,362.094 606.369,362.761 606.5,363.5C 605.128,362.488 603.795,361.488 602.5,360.5C 615.167,348.5 627.5,336.167 639.5,323.5 Z"/></g>
<g><path style="opacity:0.024" fill="#2c2d2c" d="M 247.5,336.5 C 241.5,347.167 233.167,355.5 222.5,361.5C 230.5,352.833 238.833,344.5 247.5,336.5 Z"/></g>
<g><path style="opacity:0.024" fill="#2d2d2d" d="M 353.5,369.5 C 355.167,369.5 356.833,369.5 358.5,369.5C 324.833,403.833 290.833,437.833 256.5,471.5C 258.234,467.7 260.234,464.034 262.5,460.5C 263.167,460.5 263.5,460.167 263.5,459.5C 264.167,459.5 264.5,459.167 264.5,458.5C 294.5,429.167 324.167,399.5 353.5,369.5 Z"/></g>
<g><path style="opacity:0.024" fill="#2d2d2d" d="M 336.5,371.5 C 319.833,388.833 302.833,405.833 285.5,422.5C 287.418,417.657 290.084,413.323 293.5,409.5C 305.167,398.5 316.5,387.167 327.5,375.5C 328.167,375.5 328.5,375.167 328.5,374.5C 331.007,373.108 333.673,372.108 336.5,371.5 Z"/></g>
<g><path style="opacity:0.024" fill="#2d2d2d" d="M 371.5,371.5 C 372.833,371.833 374.167,372.167 375.5,372.5C 326.5,422.167 277.167,471.5 227.5,520.5C 229.234,516.7 231.234,513.034 233.5,509.5C 234.167,509.5 234.5,509.167 234.5,508.5C 280.5,463.167 326.167,417.5 371.5,371.5 Z"/></g>
<g><path style="opacity:0.024" fill="#2d2d2d" d="M 385.5,377.5 C 386.71,377.932 387.71,378.599 388.5,379.5C 325.5,442.833 262.5,506.167 199.5,569.5C 198.957,569.44 198.624,569.107 198.5,568.5C 199.925,565.312 201.592,562.312 203.5,559.5C 204.167,559.5 204.5,559.167 204.5,558.5C 205.167,558.5 205.5,558.167 205.5,557.5C 265.833,497.833 325.833,437.833 385.5,377.5 Z"/></g>
<g><path style="opacity:0.024" fill="#2d2d2d" d="M 398.5,385.5 C 399.609,385.557 400.609,385.89 401.5,386.5C 338.5,450.167 275.167,513.5 211.5,576.5C 210.29,576.068 209.29,575.401 208.5,574.5C 271.833,511.5 335.167,448.5 398.5,385.5 Z"/></g>
<g><path style="opacity:0.024" fill="#2d2d2d" d="M 410.5,392.5 C 412.153,392.66 413.486,393.326 414.5,394.5C 350.833,457.5 287.5,520.833 224.5,584.5C 223.29,584.068 222.29,583.401 221.5,582.5C 284.5,519.167 347.5,455.833 410.5,392.5 Z"/></g>
<g><path style="opacity:0.024" fill="#2d2d2d" d="M 423.5,399.5 C 424.5,400.167 425.5,400.833 426.5,401.5C 363.5,464.833 300.5,528.167 237.5,591.5C 235.847,591.34 234.514,590.674 233.5,589.5C 297.167,526.5 360.5,463.167 423.5,399.5 Z"/></g>
<g><path style="opacity:0.024" fill="#2d2d2d" d="M 434.5,408.5 C 435.833,409.167 436.833,410.167 437.5,411.5C 374.5,473.833 311.833,536.5 249.5,599.5C 248.5,598.833 247.5,598.167 246.5,597.5C 309.167,534.5 371.833,471.5 434.5,408.5 Z"/></g>
<g><path style="opacity:0.024" fill="#2d2d2d" d="M 444.5,419.5 C 445.401,420.29 446.068,421.29 446.5,422.5C 384.833,483.5 323.5,544.833 262.5,606.5C 260.847,606.34 259.514,605.674 258.5,604.5C 320.5,542.833 382.5,481.167 444.5,419.5 Z"/></g>
<g><path style="opacity:0.024" fill="#2d2d2d" d="M 451.5,432.5 C 452.234,433.708 452.567,435.041 452.5,436.5C 392.833,495.5 333.5,554.833 274.5,614.5C 273.5,613.833 272.5,613.167 271.5,612.5C 331.167,552.167 391.167,492.167 451.5,432.5 Z"/></g>
<g><path style="opacity:0.024" fill="#2d2d2d" d="M 455.5,448.5 C 455.833,449.833 456.167,451.167 456.5,452.5C 399.833,508.5 343.5,564.833 287.5,621.5C 285.973,621.573 284.973,620.906 284.5,619.5C 341.167,562.167 398.167,505.167 455.5,448.5 Z"/></g>
<g><path style="opacity:0.024" fill="#2d2d2d" d="M 454.5,469.5 C 454.483,471.565 454.15,473.565 453.5,475.5C 452.833,475.5 452.5,475.833 452.5,476.5C 401.5,527.167 350.5,577.833 299.5,628.5C 298.391,628.443 297.391,628.11 296.5,627.5C 348.833,574.5 401.5,521.833 454.5,469.5 Z"/></g>
<g><path style="opacity:0.024" fill="#2d2d2e" d="M 436.5,507.5 C 433.996,512.515 430.996,517.181 427.5,521.5C 388.833,559.5 350.5,597.833 312.5,636.5C 310.973,636.573 309.973,635.906 309.5,634.5C 351.5,591.833 393.833,549.5 436.5,507.5 Z"/></g>
<g><path style="opacity:0.024" fill="#2d2d2d" d="M 603.5,539.5 C 605.167,539.5 606.833,539.5 608.5,539.5C 553.833,594.833 498.833,649.833 443.5,704.5C 443.5,702.833 443.5,701.167 443.5,699.5C 497.167,646.5 550.5,593.167 603.5,539.5 Z"/></g>
<g><path style="opacity:0.024" fill="#2d2d2d" d="M 623.5,539.5 C 625.167,539.5 626.833,539.5 628.5,539.5C 567.5,601.167 506.167,662.5 444.5,723.5C 443.566,722.432 443.232,721.099 443.5,719.5C 503.833,659.833 563.833,599.833 623.5,539.5 Z"/></g>
<g><path style="opacity:0.024" fill="#2d2d2d" d="M 586.5,541.5 C 539.833,588.833 492.833,635.833 445.5,682.5C 445.517,680.435 445.85,678.435 446.5,676.5C 491.5,632.167 536.167,587.5 580.5,542.5C 582.435,541.85 584.435,541.517 586.5,541.5 Z"/></g>
<g><path style="opacity:0.024" fill="#2d2d2d" d="M 641.5,541.5 C 642.959,541.433 644.292,541.766 645.5,542.5C 579.5,609.167 513.167,675.5 446.5,741.5C 446.567,740.041 446.234,738.708 445.5,737.5C 511.167,672.5 576.5,607.167 641.5,541.5 Z"/></g>
<g><path style="opacity:0.024" fill="#2d2d2d" d="M 657.5,545.5 C 658.959,545.433 660.292,545.766 661.5,546.5C 593.167,615.5 524.5,684.167 455.5,752.5C 453.847,752.34 452.514,751.674 451.5,750.5C 520.785,682.882 589.451,614.549 657.5,545.5 Z"/></g>
<g><path style="opacity:0.024" fill="#2d2d2d" d="M 559.5,548.5 C 524.167,584.5 488.5,620.167 452.5,655.5C 452.767,653.035 453.434,650.701 454.5,648.5C 455.167,648.5 455.5,648.167 455.5,647.5C 488.167,615.5 520.5,583.167 552.5,550.5C 554.701,549.434 557.035,548.767 559.5,548.5 Z"/></g>
<g><path style="opacity:0.024" fill="#2d2d2d" d="M 672.5,549.5 C 673.833,550.167 675.167,550.833 676.5,551.5C 613.5,614.833 550.5,678.167 487.5,741.5C 486.833,741.5 486.5,741.833 486.5,742.5C 483.622,744.105 480.622,745.439 477.5,746.5C 542.132,681.368 606.965,616.368 672,551.5C 672.464,550.906 672.631,550.239 672.5,549.5 Z"/></g>
<g><path style="opacity:0.024" fill="#2d2d2d" d="M 686.5,556.5 C 688.153,556.66 689.486,557.326 690.5,558.5C 634.5,613.833 578.833,669.5 523.5,725.5C 522.833,725.5 522.5,725.833 522.5,726.5C 519.838,727.499 517.172,728.499 514.5,729.5C 571.833,671.833 629.167,614.167 686.5,556.5 Z"/></g>
<g><path style="opacity:0.024" fill="#2d2d2d" d="M 405.5,558.5 C 403.766,562.3 401.766,565.966 399.5,569.5C 398.833,569.5 398.5,569.833 398.5,570.5C 373.833,594.833 349.167,619.167 324.5,643.5C 322.973,643.573 321.973,642.906 321.5,641.5C 349.5,613.833 377.5,586.167 405.5,558.5 Z"/></g>
<g><path style="opacity:0.024" fill="#2d2d2d" d="M 699.5,563.5 C 701.153,563.66 702.486,564.326 703.5,565.5C 655.5,612.833 607.833,660.5 560.5,708.5C 559.833,708.5 559.5,708.833 559.5,709.5C 556.622,711.105 553.622,712.439 550.5,713.5C 600.167,663.5 649.833,613.5 699.5,563.5 Z"/></g>
<g><path style="opacity:0.024" fill="#2d2d2d" d="M 521.5,566.5 C 505.167,583.5 488.5,600.167 471.5,616.5C 475.066,609.936 479.399,603.936 484.5,598.5C 485.167,598.5 485.5,598.167 485.5,597.5C 486.167,597.5 486.5,597.167 486.5,596.5C 487.167,596.5 487.5,596.167 487.5,595.5C 488.167,595.5 488.5,595.167 488.5,594.5C 489.167,594.5 489.5,594.167 489.5,593.5C 490.167,593.5 490.5,593.167 490.5,592.5C 491.167,592.5 491.5,592.167 491.5,591.5C 492.167,591.5 492.5,591.167 492.5,590.5C 493.167,590.5 493.5,590.167 493.5,589.5C 494.167,589.5 494.5,589.167 494.5,588.5C 495.167,588.5 495.5,588.167 495.5,587.5C 496.167,587.5 496.5,587.167 496.5,586.5C 497.167,586.5 497.5,586.167 497.5,585.5C 498.167,585.5 498.5,585.167 498.5,584.5C 499.167,584.5 499.5,584.167 499.5,583.5C 500.167,583.5 500.5,583.167 500.5,582.5C 501.167,582.5 501.5,582.167 501.5,581.5C 502.167,581.5 502.5,581.167 502.5,580.5C 508.266,575.069 514.599,570.402 521.5,566.5 Z"/></g>
<g><path style="opacity:0.024" fill="#2d2d2d" d="M 711.5,570.5 C 712.833,571.167 713.833,572.167 714.5,573.5C 675.167,613.167 635.833,652.833 596.5,692.5C 595.833,692.5 595.5,692.833 595.5,693.5C 592.838,694.499 590.172,695.499 587.5,696.5C 628.465,655.035 669.632,613.701 711,572.5C 711.464,571.906 711.631,571.239 711.5,570.5 Z"/></g>
<g><path style="opacity:0.024" fill="#2d2d2d" d="M 723.5,580.5 C 724.5,580.833 725.167,581.5 725.5,582.5C 694.833,613.5 664.167,644.5 633.5,675.5C 632.833,675.5 632.5,675.833 632.5,676.5C 629.622,678.105 626.622,679.439 623.5,680.5C 656.5,646.833 689.833,613.5 723.5,580.5 Z"/></g>
<g><path style="opacity:0.024" fill="#2d2d2d" d="M 733.5,589.5 C 734.401,590.29 735.068,591.29 735.5,592.5C 713.5,614.833 691.5,637.167 669.5,659.5C 668.833,659.5 668.5,659.833 668.5,660.5C 665.838,661.499 663.172,662.499 660.5,663.5C 684.833,638.833 709.167,614.167 733.5,589.5 Z"/></g>
<g><path style="opacity:0.024" fill="#2d2d2d" d="M 186.5,596.5 C 187.71,596.932 188.71,597.599 189.5,598.5C 183.167,605.5 176.5,612.167 169.5,618.5C 171.234,614.7 173.234,611.034 175.5,607.5C 176.167,607.5 176.5,607.167 176.5,606.5C 180.167,603.5 183.5,600.167 186.5,596.5 Z"/></g>
<g><path style="opacity:0.024" fill="#2d2d2d" d="M 743.5,600.5 C 744.401,601.29 745.068,602.29 745.5,603.5C 732.167,616.167 719.167,629.167 706.5,642.5C 705.833,642.5 705.5,642.833 705.5,643.5C 702.622,645.105 699.622,646.439 696.5,647.5C 711.833,631.5 727.5,615.833 743.5,600.5 Z"/></g>
<g><path style="opacity:0.024" fill="#2d2d2d" d="M 199.5,604.5 C 201.027,604.427 202.027,605.094 202.5,606.5C 181.5,627.167 160.5,647.833 139.5,668.5C 141.418,663.657 144.084,659.323 147.5,655.5C 164.833,638.5 182.167,621.5 199.5,604.5 Z"/></g>
<g><path style="opacity:0.024" fill="#2d2d2d" d="M 376.5,607.5 C 374.766,611.3 372.766,614.966 370.5,618.5C 369.833,618.5 369.5,618.833 369.5,619.5C 368.833,619.5 368.5,619.833 368.5,620.5C 357.833,630.5 347.5,640.833 337.5,651.5C 336.29,651.068 335.29,650.401 334.5,649.5C 348.167,635.167 362.167,621.167 376.5,607.5 Z"/></g>
<g><path style="opacity:0.024" fill="#2d2d2d" d="M 211.5,611.5 C 212.71,611.932 213.71,612.599 214.5,613.5C 180.167,648.5 145.5,683.167 110.5,717.5C 112.234,713.7 114.234,710.034 116.5,706.5C 117.167,706.5 117.5,706.167 117.5,705.5C 118.167,705.5 118.5,705.167 118.5,704.5C 149.833,673.833 180.833,642.833 211.5,611.5 Z"/></g>
<g><path style="opacity:0.024" fill="#2d2d2d" d="M 751.5,612.5 C 751.675,614.621 751.341,616.621 750.5,618.5C 747.5,620.833 744.833,623.5 742.5,626.5C 741.833,626.5 741.5,626.833 741.5,627.5C 738.993,628.892 736.327,629.892 733.5,630.5C 739.167,624.167 745.167,618.167 751.5,612.5 Z"/></g>
<g><path style="opacity:0.024" fill="#2d2d2d" d="M 224.5,619.5 C 226.027,619.427 227.027,620.094 227.5,621.5C 178.833,669.833 130.167,718.167 81.5,766.5C 83.2336,762.7 85.2336,759.034 87.5,755.5C 88.1667,755.5 88.5,755.167 88.5,754.5C 133.833,709.5 179.167,664.5 224.5,619.5 Z"/></g>
<g><path style="opacity:0.024" fill="#2d2d2d" d="M 236.5,626.5 C 237.71,626.932 238.71,627.599 239.5,628.5C 184.833,683.833 129.833,738.833 74.5,793.5C 74.5,791.833 74.5,790.167 74.5,788.5C 128.833,734.833 182.833,680.833 236.5,626.5 Z"/></g>
<g><path style="opacity:0.024" fill="#2d2d2d" d="M 249.5,634.5 C 251.153,634.66 252.486,635.326 253.5,636.5C 252.761,636.369 252.094,636.536 251.5,637C 193.299,695.368 134.965,753.535 76.5,811.5C 75.5655,810.432 75.2322,809.099 75.5,807.5C 133.5,749.833 191.5,692.167 249.5,634.5 Z"/></g>
<g><path style="opacity:0.024" fill="#2d2d2d" d="M 261.5,641.5 C 263.027,641.427 264.027,642.094 264.5,643.5C 203.833,704.5 143.167,765.5 82.5,826.5C 81.3263,825.486 80.6596,824.153 80.5,822.5C 141.167,762.5 201.5,702.167 261.5,641.5 Z"/></g>
<g><path style="opacity:0.024" fill="#2d2d2d" d="M 274.5,649.5 C 275.609,649.557 276.609,649.89 277.5,650.5C 215.167,713.167 152.833,775.833 90.5,838.5C 89.0937,838.027 88.427,837.027 88.5,835.5C 150.167,773.167 212.167,711.167 274.5,649.5 Z"/></g>
<g><path style="opacity:0.024" fill="#2d2d2d" d="M 286.5,656.5 C 288.027,656.427 289.027,657.094 289.5,658.5C 226.833,721.833 163.833,784.833 100.5,847.5C 99.2905,847.068 98.2905,846.401 97.5,845.5C 160.833,782.833 223.833,719.833 286.5,656.5 Z"/></g>
<g><path style="opacity:0.024" fill="#2d2d2d" d="M 299.5,663.5 C 300.5,664.167 301.5,664.833 302.5,665.5C 239.5,728.833 176.5,792.167 113.5,855.5C 111.847,855.34 110.514,854.674 109.5,853.5C 173.167,790.5 236.5,727.167 299.5,663.5 Z"/></g>
<g><path style="opacity:0.024" fill="#2d2d2d" d="M 763.5,664.5 C 695.5,732.833 627.5,801.167 559.5,869.5C 558.167,869.167 556.833,868.833 555.5,868.5C 621.5,802.167 687.5,735.833 753.5,669.5C 754.167,669.5 754.5,669.167 754.5,668.5C 757.378,666.895 760.378,665.561 763.5,664.5 Z"/></g>
<g><path style="opacity:0.024" fill="#2d2d2d" d="M 775.5,668.5 C 776.833,669.167 777.833,670.167 778.5,671.5C 777.761,671.369 777.094,671.536 776.5,672C 709.299,739.368 641.965,806.535 574.5,873.5C 572.901,873.768 571.568,873.434 570.5,872.5C 638.833,804.5 707.167,736.5 775.5,668.5 Z"/></g>
<g><path style="opacity:0.024" fill="#2d2d2d" d="M 311.5,671.5 C 313.153,671.66 314.486,672.326 315.5,673.5C 252.167,736.5 188.833,799.5 125.5,862.5C 124.391,862.443 123.391,862.11 122.5,861.5C 185.5,798.167 248.5,734.833 311.5,671.5 Z"/></g>
<g><path style="opacity:0.024" fill="#2d2d2d" d="M 324.5,678.5 C 325.71,678.932 326.71,679.599 327.5,680.5C 264.5,743.833 201.5,807.167 138.5,870.5C 136.847,870.34 135.514,869.674 134.5,868.5C 198.167,805.5 261.5,742.167 324.5,678.5 Z"/></g>
<g><path style="opacity:0.024" fill="#2d2d2d" d="M 726.5,681.5 C 666.167,742.5 605.5,803.167 544.5,863.5C 543.391,863.443 542.391,863.11 541.5,862.5C 600.167,803.5 658.833,744.5 717.5,685.5C 718.167,685.5 718.5,685.167 718.5,684.5C 721.162,683.501 723.828,682.501 726.5,681.5 Z"/></g>
<g><path style="opacity:0.024" fill="#2d2d2d" d="M 780.5,683.5 C 781.234,684.708 781.567,686.041 781.5,687.5C 717.833,750.5 654.5,813.833 591.5,877.5C 590.292,876.766 588.959,876.433 587.5,876.5C 651.5,811.833 715.833,747.5 780.5,683.5 Z"/></g>
<g><path style="opacity:0.024" fill="#2d2d2d" d="M 690.5,697.5 C 637.5,750.833 584.5,804.167 531.5,857.5C 530.29,857.068 529.29,856.401 528.5,855.5C 579.167,804.5 629.833,753.5 680.5,702.5C 681.167,702.5 681.5,702.167 681.5,701.5C 684.378,699.895 687.378,698.561 690.5,697.5 Z"/></g>
<g><path style="opacity:0.024" fill="#2d2d2d" d="M 782.5,701.5 C 782.5,703.167 782.5,704.833 782.5,706.5C 724.833,763.5 667.5,820.833 610.5,878.5C 608.833,878.5 607.167,878.5 605.5,878.5C 664.167,819.167 723.167,760.167 782.5,701.5 Z"/></g>
<g><path style="opacity:0.024" fill="#2d2d2d" d="M 318.5,705.5 C 316.766,709.3 314.766,712.966 312.5,716.5C 311.833,716.5 311.5,716.833 311.5,717.5C 310.833,717.5 310.5,717.833 310.5,718.5C 257.167,771.167 204.167,824.167 151.5,877.5C 149.847,877.34 148.514,876.674 147.5,875.5C 204.5,818.833 261.5,762.167 318.5,705.5 Z"/></g>
<g><path style="opacity:0.024" fill="#2d2d2d" d="M 653.5,714.5 C 608.833,759.5 564.167,804.5 519.5,849.5C 517.973,849.573 516.973,848.906 516.5,847.5C 559.167,804.5 601.833,761.5 644.5,718.5C 645.167,718.5 645.5,718.167 645.5,717.5C 648.007,716.108 650.673,715.108 653.5,714.5 Z"/></g>
<g><path style="opacity:0.024" fill="#2d2d2d" d="M 782.5,721.5 C 782.483,723.565 782.15,725.565 781.5,727.5C 731.167,777.167 681.167,827.167 631.5,877.5C 629.833,877.5 628.167,877.5 626.5,877.5C 678.167,825.167 730.167,773.167 782.5,721.5 Z"/></g>
<g><path style="opacity:0.024" fill="#2d2d2d" d="M 617.5,730.5 C 580.833,767.5 544.167,804.5 507.5,841.5C 506.167,840.833 505.167,839.833 504.5,838.5C 539.167,804.5 573.5,770.167 607.5,735.5C 608.167,735.5 608.5,735.167 608.5,734.5C 611.378,732.895 614.378,731.561 617.5,730.5 Z"/></g>
<g><path style="opacity:0.024" fill="#2d2d2d" d="M 778.5,745.5 C 778.167,747.5 777.833,749.5 777.5,751.5C 776.833,751.5 776.5,751.833 776.5,752.5C 736.167,792.167 696.167,832.167 656.5,872.5C 654.343,873.407 652.01,874.073 649.5,874.5C 692.167,831.167 735.167,788.167 778.5,745.5 Z"/></g>
<g><path style="opacity:0.024" fill="#2d2d2d" d="M 580.5,747.5 C 552.833,775.833 524.833,803.833 496.5,831.5C 495.5,831.167 494.833,830.5 494.5,829.5C 520.167,803.5 545.833,777.5 571.5,751.5C 572.167,751.5 572.5,751.167 572.5,750.5C 575.007,749.108 577.673,748.108 580.5,747.5 Z"/></g>
<g><path style="opacity:0.024" fill="#2d2d2d" d="M 289.5,754.5 C 287.683,758.801 285.35,762.801 282.5,766.5C 281.833,766.5 281.5,766.833 281.5,767.5C 242.833,805.5 204.5,843.833 166.5,882.5C 165.292,881.766 163.959,881.433 162.5,881.5C 204.5,838.833 246.833,796.5 289.5,754.5 Z"/></g>
<g><path style="opacity:0.024" fill="#2d2d2d" d="M 544.5,763.5 C 525.5,783.167 506.167,802.5 486.5,821.5C 485.599,820.71 484.932,819.71 484.5,818.5C 501.5,802.167 518.167,785.5 534.5,768.5C 535.167,768.5 535.5,768.167 535.5,767.5C 538.378,765.895 541.378,764.561 544.5,763.5 Z"/></g>
<g><path style="opacity:0.024" fill="#2d2d2d" d="M 768.5,775.5 C 767.892,778.327 766.892,780.993 765.5,783.5C 764.833,783.5 764.5,783.833 764.5,784.5C 739.167,809.167 714.167,834.167 689.5,859.5C 688.833,859.5 688.5,859.833 688.5,860.5C 685.622,862.105 682.622,863.439 679.5,864.5C 708.833,834.5 738.5,804.833 768.5,775.5 Z"/></g>
<g><path style="opacity:0.024" fill="#2d2d2d" d="M 507.5,780.5 C 497.833,790.833 487.833,800.833 477.5,810.5C 476.833,809.5 476.167,808.5 475.5,807.5C 483.5,800.167 491.167,792.5 498.5,784.5C 499.167,784.5 499.5,784.167 499.5,783.5C 502.007,782.108 504.673,781.108 507.5,780.5 Z"/></g>
<g><path style="opacity:0.024" fill="#2d2d2d" d="M 259.5,804.5 C 257.766,808.3 255.766,811.966 253.5,815.5C 252.833,815.5 252.5,815.833 252.5,816.5C 251.833,816.5 251.5,816.833 251.5,817.5C 229.833,838.5 208.5,859.833 187.5,881.5C 185.621,882.341 183.621,882.675 181.5,882.5C 207.167,856.167 233.167,830.167 259.5,804.5 Z"/></g>
<g><path style="opacity:0.024" fill="#2d2e2e" d="M 229.5,854.5 C 225.833,861.5 220.5,866.833 213.5,870.5C 218.5,864.833 223.833,859.5 229.5,854.5 Z"/></g>
<g><path style="opacity:0.024" fill="#2c2d2d" d="M 826.5,937.5 C 826.5,939.167 826.5,940.833 826.5,942.5C 821.5,946.833 816.833,951.5 812.5,956.5C 810.833,956.5 809.167,956.5 807.5,956.5C 808.167,955.5 808.833,954.5 809.5,953.5C 810.167,953.5 810.5,953.167 810.5,952.5C 811.167,952.5 811.5,952.167 811.5,951.5C 816.194,948.806 819.861,945.139 822.5,940.5C 823.167,940.5 823.5,940.167 823.5,939.5C 824.5,938.833 825.5,938.167 826.5,937.5 Z"/></g>
<g><path style="opacity:0.024" fill="#2d2e2e" d="M 3.5,939.5 C 4.90632,939.973 5.57298,940.973 5.5,942.5C 3.83333,944.833 1.83333,946.833 -0.5,948.5C -0.5,946.833 -0.5,945.167 -0.5,943.5C 1.16667,942.5 2.5,941.167 3.5,939.5 Z"/></g>
<g><path style="opacity:0.024" fill="#2d2d2d" d="M 13.5,950.5 C 14.7095,950.932 15.7095,951.599 16.5,952.5C 14.8333,953.5 13.5,954.833 12.5,956.5C 10.8333,956.5 9.16667,956.5 7.5,956.5C 9.16667,954.167 11.1667,952.167 13.5,950.5 Z"/></g>
</svg>
