<?xml version="1.0" encoding="UTF-8"?>
<svg version="1.1" xmlns="http://www.w3.org/2000/svg" width="543" height="173">
<path d="M0 0 C3.87370451 -0.26246434 7.74512381 -0.42153564 11.625 -0.5625 C13.26662109 -0.67561523 13.26662109 -0.67561523 14.94140625 -0.79101562 C22.90400805 -1.00817749 22.90400805 -1.00817749 25.90136719 1.74902344 C27.45459351 4.09659381 28.72520047 6.49175241 30 9 C30.9514583 10.40202171 31.93053474 11.78573476 32.9375 13.1484375 C33.4327417 13.83389648 33.9279834 14.51935547 34.43823242 15.22558594 C34.95361572 15.93489258 35.46899902 16.64419922 36 17.375 C36.55469971 18.14102539 37.10939941 18.90705078 37.6809082 19.69628906 C42.40226238 26.20458364 47.17512185 32.67452751 51.9543457 39.14038086 C56.36941612 45.12146724 60.7115131 51.1508122 65.01171875 57.21484375 C66.64274072 59.49955626 68.31570436 61.75427248 70 64 C70.33 42.88 70.66 21.76 71 0 C154.82 0 238.64 0 325 0 C325 9.57 325 19.14 325 29 C250.42 29 175.84 29 99 29 C98.67 57.05 98.34 85.1 98 114 C86.615 114.495 86.615 114.495 75 115 C73.10646634 113.10646634 71.5801368 111.15473199 70 109 C70.33 108.34 70.66 107.68 71 107 C69.02 106.505 69.02 106.505 67 106 C66.9175 105.4225 66.835 104.845 66.75 104.25 C65.79081036 101.37243109 64.16019805 100.0947375 62 98 C60.9375 96.0625 60.9375 96.0625 60 94 C58.14225278 90.34991527 58.14225278 90.34991527 55 88 C53.98894495 86.23880733 52.98063544 84.47577087 52.00390625 82.6953125 C51.05205072 80.9279811 51.05205072 80.9279811 49.5 79.5 C46.50994933 76.50994933 44.65195522 72.45731166 42.9375 68.625 C42.03325133 66.64235617 42.03325133 66.64235617 39 66 C38.33333333 64 37.66666667 62 37 60 C36.01 59.67 35.02 59.34 34 59 C32.95181136 57.28478222 31.90588547 55.56532598 30.96484375 53.7890625 C29.9026758 51.75296615 29.9026758 51.75296615 28 49 C27.67 70.45 27.34 91.9 27 114 C18.09 114 9.18 114 0 114 C-1.12504289 106.12469977 -1.12504289 106.12469977 -1.12698364 102.23016357 C-1.12980347 101.34980438 -1.13262329 100.46944519 -1.13552856 99.56240845 C-1.13350433 98.61981171 -1.1314801 97.67721497 -1.12939453 96.70605469 C-1.13114685 95.69548004 -1.13289917 94.6849054 -1.13470459 93.64370728 C-1.13908856 90.31974547 -1.13619818 86.9958373 -1.1328125 83.671875 C-1.13348632 81.35736074 -1.134457 79.04284654 -1.13571167 76.72833252 C-1.13718378 71.8865898 -1.13504892 67.04486557 -1.13037109 62.203125 C-1.12466133 55.98988762 -1.12796377 49.77669331 -1.13394356 43.56345749 C-1.13755142 38.78863193 -1.13640976 34.01381665 -1.13381577 29.23899078 C-1.13314778 26.94719691 -1.13397045 24.65540211 -1.13629532 22.36360931 C-1.13882688 19.16783665 -1.13497464 15.97213458 -1.12939453 12.77636719 C-1.13141876 11.82567352 -1.13344299 10.87497986 -1.13552856 9.89547729 C-1.13270874 9.0263974 -1.12988892 8.1573175 -1.12698364 7.26190186 C-1.12660662 6.5068272 -1.12622959 5.75175255 -1.12584114 4.97379684 C-1 3 -1 3 0 0 Z " fill="#0086F5" transform="translate(165,0)"/>
<path d="M0 0 C8.91 0 17.82 0 27 0 C27 37.62 27 75.24 27 114 C24.69 114 22.38 114 20 114 C20.0309375 115.4540625 20.0309375 115.4540625 20.0625 116.9375 C20 120 20 120 19 121 C15.81676451 121.10031195 12.65514368 121.13437106 9.47143555 121.12698364 C8.4585657 121.12854363 7.44569586 121.13010362 6.40213299 121.13171089 C2.9803138 121.13572564 -0.44146167 121.13252941 -3.86328125 121.12939453 C-6.30512518 121.13074836 -8.74696892 121.13252819 -11.18881226 121.13470459 C-17.14940411 121.13880499 -23.10997856 121.13818562 -29.07056975 121.13529195 C-33.91273969 121.1330381 -38.7549061 121.13272531 -43.59707642 121.13381577 C-44.62887448 121.13404561 -44.62887448 121.13404561 -45.68151695 121.13428011 C-47.07868568 121.13459982 -48.47585442 121.13492403 -49.87302315 121.1352527 C-62.98952576 121.13810763 -76.10602139 121.13482027 -89.22252285 121.12945233 C-100.48917238 121.12498428 -111.7558116 121.12576021 -123.02246094 121.13037109 C-136.09044534 121.13571663 -149.15842362 121.13783294 -162.22640896 121.13475883 C-163.6185805 121.13444026 -165.01075204 121.13412589 -166.40292358 121.13381577 C-167.08798723 121.13366149 -167.77305088 121.13350721 -168.47887403 121.13334826 C-173.31799962 121.13248305 -178.15712134 121.13394609 -182.99624634 121.13629532 C-189.50337926 121.13938472 -196.01049565 121.13720083 -202.51762772 121.13140106 C-204.91346835 121.13007274 -207.30931061 121.13046879 -209.7051506 121.13266373 C-212.96060155 121.1353724 -216.21598873 121.13199758 -219.47143555 121.12698364 C-220.43279576 121.12921436 -221.39415598 121.13144509 -222.38464832 121.13374341 C-228.8858502 121.1141498 -228.8858502 121.1141498 -230 120 C-230 110.43 -230 100.86 -230 91 C-154.1 91 -78.2 91 0 91 C0 60.97 0 30.94 0 0 Z " fill="#093873" transform="translate(341,51)"/>
<path d="M0 0 C1.58167969 0.13921875 1.58167969 0.13921875 3.1953125 0.28125 C20.56948117 2.26686928 34.70696652 9.5868989 46 23 C56.56147502 37.50637379 59.10965755 54.67467161 56.70263672 72.16015625 C53.88406761 87.91076046 45.20344318 100.46105043 32.45703125 109.87890625 C16.09667705 120.25693697 -3.34687417 122.15958207 -22 118 C-37.98976016 113.20119742 -49.90097662 104.83133656 -58 90 C-58 89.34 -58 88.68 -58 88 C-58.66 87.67 -59.32 87.34 -60 87 C-67.3085124 69.35679429 -67.2851845 51.19454242 -60.296875 33.5625 C-56.78712125 26.62756488 -51.84068329 20.12840484 -46 15 C-45.37867188 14.44828125 -44.75734375 13.8965625 -44.1171875 13.328125 C-32.39579243 3.49727752 -15.3015819 -1.44257338 0 0 Z M-28 36 C-36.28734304 45.62093847 -37.89479904 54.50121975 -37 67 C-35.49094967 75.52169595 -30.79669163 82.22154565 -23.875 87.3125 C-14.95540208 92.78079621 -5.18214798 94.08431245 5 92 C8.19630582 90.95911393 11.06769046 89.63555114 14 88 C15.0725 87.401875 16.145 86.80375 17.25 86.1875 C23.15327714 81.49171136 26.64545429 75.41874265 28 68 C28.79310956 58.63743833 28.54182854 50.46355503 24 42 C23.38125 40.63875 23.38125 40.63875 22.75 39.25 C17.57540782 32.59695291 10.39776194 28.98907854 2.25 27.49609375 C-8.8541809 26.12252971 -19.58609759 28.29531542 -28 36 Z " fill="#093975" transform="translate(485,48)"/>
<path d="M0 0 C8.91 0 17.82 0 27 0 C32.62431576 12.37349467 32.62431576 12.37349467 34.36499023 16.83398438 C34.76035477 17.84252975 35.1557193 18.85107513 35.56306458 19.8901825 C35.9740892 20.94735977 36.38511383 22.00453705 36.80859375 23.09375 C37.25236862 24.22750565 37.69614349 25.36126129 38.15336609 26.52937317 C39.33976684 29.56120574 40.52370661 32.59398479 41.70664215 35.62717056 C43.67475504 40.67047653 45.65012284 45.7109498 47.62483978 50.75167274 C48.11707617 52.00822221 48.60920775 53.26481273 49.10123444 54.52144432 C53.92940853 66.85127177 58.82986152 79.15113977 63.78686523 91.4296875 C66.6652321 98.5719383 69.43201265 105.7396676 72 113 C71 114 71 114 68.22436523 114.11352539 C67.01466064 114.10828857 65.80495605 114.10305176 64.55859375 114.09765625 C63.25341797 114.09443359 61.94824219 114.09121094 60.60351562 114.08789062 C59.2148431 114.07953401 57.82617123 114.07106905 56.4375 114.0625 C55.04492344 114.05748666 53.65234519 114.05292347 52.25976562 114.04882812 C48.8398013 114.03699434 45.41992156 114.0205088 42 114 C39.86535242 109.24212064 38.44180763 104.9587286 37.52734375 99.8203125 C37.26630859 98.91925781 37.26630859 98.91925781 37 98 C36.34 97.67 35.68 97.34 35 97 C35.33 96.34 35.66 95.68 36 95 C21.48 95 6.96 95 -8 95 C-8.99 98.3 -9.98 101.6 -11 105 C-14.48717949 112.48717949 -14.48717949 112.48717949 -16 114 C-18.0708472 114.1584265 -20.14678029 114.25124422 -22.22265625 114.31640625 C-24.11274414 114.37924805 -24.11274414 114.37924805 -26.04101562 114.44335938 C-27.38150736 114.48317596 -28.7220022 114.52288814 -30.0625 114.5625 C-31.40691523 114.60568042 -32.7513166 114.64929456 -34.09570312 114.69335938 C-37.3970234 114.79985358 -40.69842236 114.9018646 -44 115 C-45.24786391 110.89696623 -44.44907108 108.85844281 -42.8125 104.875 C-42.34457031 103.71742187 -41.87664063 102.55984375 -41.39453125 101.3671875 C-40.70423828 99.70042969 -40.70423828 99.70042969 -40 98 C-39.33119054 96.33419205 -38.66430929 94.66760768 -38 93 C-37.6803125 92.20722656 -37.360625 91.41445312 -37.03125 90.59765625 C-35.82357486 87.55559577 -34.66281389 84.4969768 -33.5 81.4375 C-31.82290849 77.05871091 -30.03842321 72.77045061 -28.09765625 68.50390625 C-25.86455497 63.4098923 -23.86000018 58.21810104 -21.8125 53.04736328 C-20.21739289 49.02796177 -18.60719618 45.01457894 -17 41 C-16.33327742 39.3333557 -15.66661033 37.6666892 -15 36 C-11 26 -11 26 -10.00708008 23.51953125 C-9.31514182 21.78842753 -8.62497072 20.05661673 -7.9362793 18.32421875 C-6.28950151 14.1871636 -4.64138422 10.06086945 -2.8125 6 C-2.48894531 5.278125 -2.16539063 4.55625 -1.83203125 3.8125 C-1.24381055 2.53111783 -0.63054641 1.26109282 0 0 Z M13 37 C11.14425856 41.66137345 9.29296109 46.32447725 7.44580078 50.98925781 C6.81649348 52.57665868 6.18596404 54.16357559 5.55419922 55.75 C4.64751319 58.02739033 3.74520402 60.30647201 2.84375 62.5859375 C2.55939087 63.29744965 2.27503174 64.00896179 1.98205566 64.74203491 C0.50623563 68.26340363 0.50623563 68.26340363 0 72 C9.24 72 18.48 72 28 72 C27.34 71.01 26.68 70.02 26 69 C25.7525 67.4840625 25.7525 67.4840625 25.5 65.9375 C25.27206546 62.88644627 25.27206546 62.88644627 23 61 C22.31591647 58.98195359 21.63887234 56.96126749 20.99609375 54.9296875 C18.93084212 48.855418 16.41848509 42.94055076 14 37 C13.67 37 13.34 37 13 37 Z " fill="#0085F3" transform="translate(47,0)"/>
</svg>
